<svg width="1440" height="174" viewBox="0 0 1440 174" fill="none" xmlns="http://www.w3.org/2000/svg">
<path d="M0 102.512V79.5011L109.304 29.0039V57.3686L31.6406 90.6872L32.5195 89.169V92.8445L31.6406 91.3264L109.304 124.645V153.01L0 102.512Z" fill="#262625"/>
<path d="M167.411 171.307H135.771L193.379 7.67046H229.974L287.662 171.307H256.021L212.316 41.2287H211.037L167.411 171.307ZM168.45 107.147H254.743V130.957H168.45V107.147Z" fill="#262625"/>
<path d="M423.273 102.512L313.969 153.01V124.645L391.632 91.3264L390.753 92.8445V89.169L391.632 90.6872L313.969 57.3686V29.0039L423.273 79.5011V102.512Z" fill="#262625"/>
<path d="M460.367 171.307V7.67046H565.196V32.5195H490.01V76.9443H558.005V101.793H490.01V171.307H460.367Z" fill="#262625"/>
<path d="M589.046 171.307V48.5796H617.091V69.0341H618.37C620.607 61.9496 624.442 56.4897 629.875 52.6545C635.362 48.766 641.621 46.8217 648.652 46.8217C650.25 46.8217 652.035 46.9016 654.005 47.0614C656.03 47.168 657.708 47.3544 659.039 47.6207V74.2276C657.814 73.8015 655.87 73.4286 653.206 73.109C650.596 72.7362 648.066 72.5497 645.616 72.5497C640.342 72.5497 635.602 73.695 631.394 75.9854C627.239 78.2227 623.963 81.3388 621.566 85.3338C619.169 89.3288 617.97 93.9364 617.97 99.1566V171.307H589.046Z" fill="#262625"/>
<path d="M726.615 173.704C714.63 173.704 704.243 171.067 695.454 165.794C686.665 160.52 679.847 153.143 674.999 143.661C670.205 134.18 667.808 123.1 667.808 110.423C667.808 97.745 670.205 86.6389 674.999 77.104C679.847 67.5692 686.665 60.1651 695.454 54.8917C704.243 49.6183 714.63 46.9815 726.615 46.9815C738.6 46.9815 748.987 49.6183 757.776 54.8917C766.565 60.1651 773.357 67.5692 778.151 77.104C782.998 86.6389 785.422 97.745 785.422 110.423C785.422 123.1 782.998 134.18 778.151 143.661C773.357 153.143 766.565 160.52 757.776 165.794C748.987 171.067 738.6 173.704 726.615 173.704ZM726.775 150.533C733.273 150.533 738.707 148.748 743.074 145.179C747.442 141.557 750.692 136.71 752.822 130.637C755.006 124.565 756.098 117.8 756.098 110.343C756.098 102.832 755.006 96.0405 752.822 89.968C750.692 83.8423 747.442 78.9684 743.074 75.3462C738.707 71.7241 733.273 69.913 726.775 69.913C720.116 69.913 714.577 71.7241 710.155 75.3462C705.788 78.9684 702.512 83.8423 700.328 89.968C698.197 96.0405 697.132 102.832 697.132 110.343C697.132 117.8 698.197 124.565 700.328 130.637C702.512 136.71 705.788 141.557 710.155 145.179C714.577 148.748 720.116 150.533 726.775 150.533Z" fill="#262625"/>
<path d="M838.775 99.3963V171.307H809.851V48.5796H837.497V69.4336H838.935C841.758 62.5622 846.259 57.1023 852.438 53.054C858.671 49.0057 866.368 46.9815 875.53 46.9815C883.999 46.9815 891.376 48.7926 897.662 52.4148C904.001 56.0369 908.901 61.2837 912.364 68.1552C915.879 75.0266 917.61 83.3629 917.557 93.1641V171.307H888.633V97.6385C888.633 89.4354 886.503 83.0167 882.241 78.3825C878.033 73.7482 872.2 71.4311 864.743 71.4311C859.683 71.4311 855.182 72.5497 851.24 74.7869C847.351 76.9709 844.288 80.1403 842.051 84.2951C839.867 88.4499 838.775 93.4837 838.775 99.3963Z" fill="#262625"/>
<path d="M1008.12 48.5796V70.9517H937.572V48.5796H1008.12ZM954.99 19.1761H983.914V134.393C983.914 138.281 984.5 141.264 985.672 143.342C986.897 145.366 988.495 146.751 990.466 147.496C992.437 148.242 994.621 148.615 997.018 148.615C998.829 148.615 1000.48 148.482 1001.97 148.216C1003.52 147.949 1004.69 147.71 1005.49 147.496L1010.36 170.108C1008.82 170.641 1006.61 171.227 1003.73 171.866C1000.91 172.505 997.444 172.878 993.343 172.985C986.098 173.198 979.573 172.106 973.767 169.709C967.961 167.259 963.353 163.477 959.944 158.363C956.588 153.249 954.937 146.857 954.99 139.187V19.1761Z" fill="#262625"/>
<path d="M1116.81 7.67046V171.307H1087.88V7.67046H1116.81Z" fill="#262625"/>
<path d="M1200.76 173.704C1188.46 173.704 1177.83 171.147 1168.88 166.033C1159.99 160.866 1153.14 153.569 1148.35 144.141C1143.56 134.659 1141.16 123.5 1141.16 110.662C1141.16 98.038 1143.56 86.9585 1148.35 77.4237C1153.2 67.8356 1159.96 60.3782 1168.64 55.0515C1177.33 49.6715 1187.53 46.9815 1199.25 46.9815C1206.81 46.9815 1213.95 48.2067 1220.66 50.657C1227.42 53.054 1233.39 56.7827 1238.56 61.843C1243.78 66.9034 1247.88 73.3487 1250.86 81.179C1253.84 88.956 1255.34 98.2244 1255.34 108.984V117.853H1154.74V98.3576H1227.61C1227.56 92.8178 1226.36 87.8906 1224.02 83.576C1221.67 79.2081 1218.4 75.7724 1214.19 73.2688C1210.03 70.7653 1205.19 69.5135 1199.65 69.5135C1193.73 69.5135 1188.54 70.9517 1184.06 73.8281C1179.59 76.6513 1176.1 80.38 1173.6 85.0142C1171.15 89.5952 1169.9 94.6289 1169.84 100.115V117.134C1169.84 124.272 1171.15 130.398 1173.76 135.511C1176.37 140.572 1180.02 144.46 1184.7 147.177C1189.39 149.84 1194.88 151.172 1201.16 151.172C1205.37 151.172 1209.18 150.586 1212.59 149.414C1216 148.189 1218.95 146.404 1221.46 144.061C1223.96 141.717 1225.85 138.814 1227.13 135.352L1254.14 138.388C1252.43 145.526 1249.18 151.758 1244.39 157.085C1239.65 162.358 1233.58 166.46 1226.17 169.389C1218.77 172.266 1210.3 173.704 1200.76 173.704Z" fill="#262625"/>
<path d="M1376.69 81.0192L1350.32 83.8956C1349.57 81.2323 1348.27 78.7287 1346.4 76.3849C1344.59 74.0412 1342.14 72.1502 1339.05 70.712C1335.96 69.2738 1332.18 68.5547 1327.71 68.5547C1321.69 68.5547 1316.63 69.8597 1312.52 72.4698C1308.48 75.0799 1306.48 78.4624 1306.53 82.6172C1306.48 86.1861 1307.78 89.0891 1310.45 91.3264C1313.16 93.5636 1317.64 95.4013 1323.87 96.8395L1344.8 101.314C1356.42 103.817 1365.05 107.786 1370.69 113.219C1376.39 118.652 1379.27 125.764 1379.32 134.553C1379.27 142.276 1377 149.094 1372.53 155.007C1368.11 160.866 1361.96 165.447 1354.07 168.75C1346.19 172.053 1337.13 173.704 1326.91 173.704C1311.89 173.704 1299.79 170.561 1290.63 164.276C1281.47 157.937 1276.01 149.121 1274.25 137.828L1302.46 135.112C1303.74 140.652 1306.45 144.833 1310.61 147.656C1314.76 150.479 1320.17 151.891 1326.83 151.891C1333.7 151.891 1339.21 150.479 1343.37 147.656C1347.57 144.833 1349.68 141.344 1349.68 137.189C1349.68 133.674 1348.32 130.771 1345.6 128.48C1342.94 126.19 1338.79 124.432 1333.14 123.207L1312.21 118.812C1300.43 116.362 1291.72 112.234 1286.08 106.428C1280.43 100.568 1277.64 93.1641 1277.69 84.2152C1277.64 76.6513 1279.69 70.0994 1283.84 64.5597C1288.05 58.9666 1293.88 54.652 1301.34 51.6158C1308.85 48.5263 1317.51 46.9815 1327.31 46.9815C1341.69 46.9815 1353.01 50.0444 1361.26 56.1701C1369.57 62.2958 1374.71 70.5788 1376.69 81.0192Z" fill="#262625"/>
<path d="M1452.83 32.5195V7.67046H1583.39V32.5195H1532.81V171.307H1503.41V32.5195H1452.83Z" fill="#262625"/>
<path d="M1642.89 173.704C1630.91 173.704 1620.52 171.067 1611.73 165.794C1602.94 160.52 1596.12 153.143 1591.28 143.661C1586.48 134.18 1584.09 123.1 1584.09 110.423C1584.09 97.745 1586.48 86.6389 1591.28 77.104C1596.12 67.5692 1602.94 60.1651 1611.73 54.8917C1620.52 49.6183 1630.91 46.9815 1642.89 46.9815C1654.88 46.9815 1665.27 49.6183 1674.05 54.8917C1682.84 60.1651 1689.64 67.5692 1694.43 77.104C1699.28 86.6389 1701.7 97.745 1701.7 110.423C1701.7 123.1 1699.28 134.18 1694.43 143.661C1689.64 153.143 1682.84 160.52 1674.05 165.794C1665.27 171.067 1654.88 173.704 1642.89 173.704ZM1643.05 150.533C1649.55 150.533 1654.98 148.748 1659.35 145.179C1663.72 141.557 1666.97 136.71 1669.1 130.637C1671.28 124.565 1672.38 117.8 1672.38 110.343C1672.38 102.832 1671.28 96.0405 1669.1 89.968C1666.97 83.8423 1663.72 78.9684 1659.35 75.3462C1654.98 71.7241 1649.55 69.913 1643.05 69.913C1636.39 69.913 1630.85 71.7241 1626.43 75.3462C1622.07 78.9684 1618.79 83.8423 1616.61 89.968C1614.48 96.0405 1613.41 102.832 1613.41 110.343C1613.41 117.8 1614.48 124.565 1616.61 130.637C1618.79 136.71 1622.07 141.557 1626.43 145.179C1630.85 148.748 1636.39 150.533 1643.05 150.533Z" fill="#262625"/>
<path d="M1804.35 119.691V48.5796H1833.28V171.307H1805.23V149.494H1803.95C1801.18 156.365 1796.63 161.985 1790.29 166.353C1784 170.721 1776.25 172.905 1767.04 172.905C1759 172.905 1751.88 171.12 1745.71 167.552C1739.58 163.929 1734.79 158.683 1731.32 151.811C1727.86 144.886 1726.13 136.523 1726.13 126.722V48.5796H1755.05V122.248C1755.05 130.025 1757.18 136.204 1761.45 140.785C1765.71 145.366 1771.3 147.656 1778.22 147.656C1782.49 147.656 1786.61 146.618 1790.61 144.54C1794.6 142.463 1797.88 139.373 1800.44 135.272C1803.05 131.117 1804.35 125.923 1804.35 119.691Z" fill="#262625"/>
<path d="M1959.9 81.0192L1933.53 83.8956C1932.79 81.2323 1931.48 78.7287 1929.62 76.3849C1927.81 74.0412 1925.35 72.1502 1922.27 70.712C1919.18 69.2738 1915.39 68.5547 1910.92 68.5547C1904.9 68.5547 1899.84 69.8597 1895.74 72.4698C1891.69 75.0799 1889.69 78.4624 1889.75 82.6172C1889.69 86.1861 1891 89.0891 1893.66 91.3264C1896.38 93.5636 1900.85 95.4013 1907.08 96.8395L1928.02 101.314C1939.63 103.817 1948.26 107.786 1953.91 113.219C1959.61 118.652 1962.48 125.764 1962.54 134.553C1962.48 142.276 1960.22 149.094 1955.74 155.007C1951.32 160.866 1945.17 165.447 1937.29 168.75C1929.4 172.053 1920.35 173.704 1910.12 173.704C1895.1 173.704 1883.01 170.561 1873.85 164.276C1864.68 157.937 1859.22 149.121 1857.47 137.828L1885.67 135.112C1886.95 140.652 1889.67 144.833 1893.82 147.656C1897.98 150.479 1903.38 151.891 1910.04 151.891C1916.91 151.891 1922.43 150.479 1926.58 147.656C1930.79 144.833 1932.89 141.344 1932.89 137.189C1932.89 133.674 1931.53 130.771 1928.82 128.48C1926.15 126.19 1922 124.432 1916.35 123.207L1895.42 118.812C1883.65 116.362 1874.94 112.234 1869.29 106.428C1863.64 100.568 1860.85 93.1641 1860.9 84.2152C1860.85 76.6513 1862.9 70.0994 1867.05 64.5597C1871.26 58.9666 1877.09 54.652 1884.55 51.6158C1892.06 48.5263 1900.72 46.9815 1910.52 46.9815C1924.9 46.9815 1936.22 50.0444 1944.48 56.1701C1952.79 62.2958 1957.93 70.5788 1959.9 81.0192Z" fill="#262625"/>
<path d="M2021.66 7.67046L2019.02 123.207H1993.3L1990.74 7.67046H2021.66ZM2006.16 173.065C2001.31 173.065 1997.16 171.36 1993.7 167.951C1990.29 164.542 1988.58 160.387 1988.58 155.487C1988.58 150.692 1990.29 146.591 1993.7 143.182C1997.16 139.773 2001.31 138.068 2006.16 138.068C2010.9 138.068 2015 139.773 2018.47 143.182C2021.98 146.591 2023.74 150.692 2023.74 155.487C2023.74 158.736 2022.91 161.692 2021.26 164.355C2019.66 167.019 2017.53 169.15 2014.87 170.748C2012.26 172.292 2009.36 173.065 2006.16 173.065Z" fill="#262625"/>
<path d="M2342.61 62.8818H2312.73C2311.88 57.9812 2310.31 53.6399 2308.02 49.858C2305.73 46.0227 2302.88 42.7734 2299.47 40.1101C2296.06 37.4467 2292.17 35.4492 2287.8 34.1175C2283.49 32.7326 2278.83 32.0401 2273.82 32.0401C2264.92 32.0401 2257.04 34.2774 2250.17 38.7518C2243.3 43.1729 2237.92 49.6715 2234.03 58.2475C2230.14 66.7702 2228.2 77.184 2228.2 89.4886C2228.2 102.006 2230.14 112.553 2234.03 121.129C2237.97 129.652 2243.35 136.097 2250.17 140.465C2257.04 144.78 2264.9 146.937 2273.74 146.937C2278.64 146.937 2283.22 146.298 2287.48 145.02C2291.8 143.688 2295.66 141.744 2299.07 139.187C2302.53 136.63 2305.43 133.487 2307.78 129.759C2310.17 126.03 2311.83 121.768 2312.73 116.974L2342.61 117.134C2341.5 124.911 2339.07 132.209 2335.34 139.027C2331.67 145.845 2326.85 151.864 2320.88 157.085C2314.91 162.251 2307.94 166.3 2299.95 169.229C2291.96 172.106 2283.09 173.544 2273.34 173.544C2258.96 173.544 2246.12 170.215 2234.83 163.556C2223.54 156.898 2214.64 147.283 2208.14 134.712C2201.64 122.141 2198.39 107.067 2198.39 89.4886C2198.39 71.8573 2201.67 56.7827 2208.22 44.2649C2214.77 31.6939 2223.7 22.0792 2234.99 15.4208C2246.28 8.76243 2259.06 5.43324 2273.34 5.43324C2282.45 5.43324 2290.92 6.71165 2298.75 9.26847C2306.58 11.8253 2313.56 15.5806 2319.68 20.5345C2325.81 25.435 2330.84 31.4542 2334.78 38.592C2338.78 45.6765 2341.39 53.7731 2342.61 62.8818Z" fill="#262625"/>
<path d="M2397.29 7.67046V171.307H2368.36V7.67046H2397.29Z" fill="#262625"/>
<path d="M2462.22 173.784C2454.45 173.784 2447.44 172.399 2441.21 169.629C2435.03 166.806 2430.13 162.651 2426.51 157.164C2422.94 151.678 2421.16 144.913 2421.16 136.87C2421.16 129.945 2422.43 124.219 2424.99 119.691C2427.55 115.163 2431.04 111.541 2435.46 108.825C2439.88 106.108 2444.86 104.057 2450.4 102.672C2455.99 101.234 2461.77 100.195 2467.74 99.5561C2474.93 98.8104 2480.76 98.1445 2485.24 97.5586C2489.71 96.9194 2492.96 95.9606 2494.98 94.6822C2497.06 93.3505 2498.1 91.2997 2498.1 88.5298V88.0504C2498.1 82.0313 2496.32 77.3704 2492.75 74.0678C2489.18 70.7653 2484.04 69.114 2477.33 69.114C2470.24 69.114 2464.62 70.6587 2460.47 73.7482C2456.36 76.8377 2453.6 80.4865 2452.16 84.6946L2425.15 80.8594C2427.28 73.402 2430.8 67.1698 2435.7 62.1626C2440.6 57.1023 2446.59 53.3203 2453.68 50.8168C2460.76 48.26 2468.59 46.9815 2477.17 46.9815C2483.08 46.9815 2488.96 47.674 2494.82 49.059C2500.68 50.4439 2506.04 52.7344 2510.88 55.9304C2515.73 59.0732 2519.62 63.3612 2522.55 68.7944C2525.53 74.2276 2527.02 81.0192 2527.02 89.169V171.307H2499.22V154.448H2498.26C2496.5 157.857 2494.02 161.053 2490.83 164.036C2487.69 166.966 2483.72 169.336 2478.92 171.147C2474.18 172.905 2468.62 173.784 2462.22 173.784ZM2469.74 152.53C2475.54 152.53 2480.58 151.385 2484.84 149.094C2489.1 146.751 2492.37 143.661 2494.66 139.826C2497.01 135.991 2498.18 131.809 2498.18 127.282V112.82C2497.27 113.565 2495.73 114.258 2493.55 114.897C2491.41 115.536 2489.02 116.096 2486.35 116.575C2483.69 117.054 2481.05 117.48 2478.44 117.853C2475.83 118.226 2473.57 118.546 2471.65 118.812C2467.34 119.398 2463.48 120.357 2460.07 121.689C2456.66 123.02 2453.97 124.885 2452 127.282C2450.03 129.625 2449.04 132.662 2449.04 136.39C2449.04 141.717 2450.99 145.739 2454.87 148.455C2458.76 151.172 2463.72 152.53 2469.74 152.53Z" fill="#262625"/>
<path d="M2652.99 81.0192L2626.62 83.8956C2625.87 81.2323 2624.57 78.7287 2622.7 76.3849C2620.89 74.0412 2618.44 72.1502 2615.35 70.712C2612.26 69.2738 2608.48 68.5547 2604.01 68.5547C2597.99 68.5547 2592.93 69.8597 2588.83 72.4698C2584.78 75.0799 2582.78 78.4624 2582.83 82.6172C2582.78 86.1861 2584.09 89.0891 2586.75 91.3264C2589.47 93.5636 2593.94 95.4013 2600.17 96.8395L2621.11 101.314C2632.72 103.817 2641.35 107.786 2646.99 113.219C2652.69 118.652 2655.57 125.764 2655.62 134.553C2655.57 142.276 2653.31 149.094 2648.83 155.007C2644.41 160.866 2638.26 165.447 2630.38 168.75C2622.49 172.053 2613.44 173.704 2603.21 173.704C2588.19 173.704 2576.1 170.561 2566.93 164.276C2557.77 157.937 2552.31 149.121 2550.55 137.828L2578.76 135.112C2580.04 140.652 2582.75 144.833 2586.91 147.656C2591.06 150.479 2596.47 151.891 2603.13 151.891C2610 151.891 2615.51 150.479 2619.67 147.656C2623.88 144.833 2625.98 141.344 2625.98 137.189C2625.98 133.674 2624.62 130.771 2621.91 128.48C2619.24 126.19 2615.09 124.432 2609.44 123.207L2588.51 118.812C2576.74 116.362 2568.03 112.234 2562.38 106.428C2556.73 100.568 2553.94 93.1641 2553.99 84.2152C2553.94 76.6513 2555.99 70.0994 2560.14 64.5597C2564.35 58.9666 2570.18 54.652 2577.64 51.6158C2585.15 48.5263 2593.81 46.9815 2603.61 46.9815C2617.99 46.9815 2629.31 50.0444 2637.57 56.1701C2645.88 62.2958 2651.02 70.5788 2652.99 81.0192Z" fill="#262625"/>
<path d="M2708.28 99.3963V171.307H2679.35V7.67046H2707.64V69.4336H2709.08C2711.95 62.5089 2716.4 57.049 2722.42 53.054C2728.49 49.0057 2736.22 46.9815 2745.59 46.9815C2754.11 46.9815 2761.55 48.766 2767.88 52.3349C2774.22 55.9038 2779.12 61.1239 2782.59 67.9954C2786.1 74.8668 2787.86 83.2564 2787.86 93.1641V171.307H2758.94V97.6385C2758.94 89.3821 2756.8 82.9634 2752.54 78.3825C2748.33 73.7482 2742.42 71.4311 2734.8 71.4311C2729.69 71.4311 2725.11 72.5497 2721.06 74.7869C2717.07 76.9709 2713.92 80.1403 2711.63 84.2951C2709.4 88.4499 2708.28 93.4837 2708.28 99.3963Z" fill="#262625"/>
<path d="M2926.45 173.704C2914.46 173.704 2904.07 171.067 2895.28 165.794C2886.5 160.52 2879.68 153.143 2874.83 143.661C2870.04 134.18 2867.64 123.1 2867.64 110.423C2867.64 97.745 2870.04 86.6389 2874.83 77.104C2879.68 67.5692 2886.5 60.1651 2895.28 54.8917C2904.07 49.6183 2914.46 46.9815 2926.45 46.9815C2938.43 46.9815 2948.82 49.6183 2957.61 54.8917C2966.4 60.1651 2973.19 67.5692 2977.98 77.104C2982.83 86.6389 2985.25 97.745 2985.25 110.423C2985.25 123.1 2982.83 134.18 2977.98 143.661C2973.19 153.143 2966.4 160.52 2957.61 165.794C2948.82 171.067 2938.43 173.704 2926.45 173.704ZM2926.61 150.533C2933.1 150.533 2938.54 148.748 2942.91 145.179C2947.27 141.557 2950.52 136.71 2952.65 130.637C2954.84 124.565 2955.93 117.8 2955.93 110.343C2955.93 102.832 2954.84 96.0405 2952.65 89.968C2950.52 83.8423 2947.27 78.9684 2942.91 75.3462C2938.54 71.7241 2933.1 69.913 2926.61 69.913C2919.95 69.913 2914.41 71.7241 2909.99 75.3462C2905.62 78.9684 2902.34 83.8423 2900.16 89.968C2898.03 96.0405 2896.96 102.832 2896.96 110.343C2896.96 117.8 2898.03 124.565 2900.16 130.637C2902.34 136.71 2905.62 141.557 2909.99 145.179C2914.41 148.748 2919.95 150.533 2926.61 150.533Z" fill="#262625"/>
<path d="M3071.85 48.5796V70.9517H2999.3V48.5796H3071.85ZM3017.43 171.307V36.994C3017.43 28.7376 3019.14 21.8661 3022.55 16.3796C3026.01 10.8931 3030.64 6.79155 3036.45 4.07493C3042.26 1.35831 3048.7 0 3055.79 0C3060.79 0 3065.24 0.399506 3069.13 1.19852C3073.02 1.99752 3075.89 2.71663 3077.76 3.35583L3072 25.728C3070.78 25.3551 3069.24 24.9822 3067.37 24.6094C3065.51 24.1832 3063.43 23.9702 3061.14 23.9702C3055.76 23.9702 3051.95 25.2752 3049.71 27.8853C3047.53 30.4421 3046.44 34.1175 3046.44 38.9116V171.307H3017.43Z" fill="#262625"/>
<path d="M3206.8 171.307H3151.35V7.67046H3207.92C3224.16 7.67046 3238.12 10.9464 3249.78 17.4982C3261.5 23.9968 3270.5 33.3452 3276.79 45.5433C3283.08 57.7415 3286.22 72.3367 3286.22 89.3288C3286.22 106.374 3283.05 121.023 3276.71 133.274C3270.42 145.526 3261.34 154.927 3249.46 161.479C3237.64 168.031 3223.42 171.307 3206.8 171.307ZM3180.99 145.659H3205.36C3216.76 145.659 3226.27 143.581 3233.88 139.427C3241.5 135.218 3247.23 128.96 3251.06 120.65C3254.9 112.287 3256.81 101.847 3256.81 89.3288C3256.81 76.8111 3254.9 66.424 3251.06 58.1676C3247.23 49.858 3241.55 43.6524 3234.04 39.5508C3226.59 35.396 3217.32 33.3186 3206.24 33.3186H3180.99V145.659Z" fill="#262625"/>
<path d="M3367.32 173.704C3355.01 173.704 3344.39 171.147 3335.44 166.033C3326.54 160.866 3319.7 153.569 3314.9 144.141C3310.11 134.659 3307.71 123.5 3307.71 110.662C3307.71 98.038 3310.11 86.9585 3314.9 77.4237C3319.75 67.8356 3326.51 60.3782 3335.2 55.0515C3343.88 49.6715 3354.08 46.9815 3365.8 46.9815C3373.36 46.9815 3380.5 48.2067 3387.21 50.657C3393.98 53.054 3399.94 56.7827 3405.11 61.843C3410.33 66.9034 3414.43 73.3487 3417.41 81.179C3420.4 88.956 3421.89 98.2244 3421.89 108.984V117.853H3321.29V98.3576H3394.16C3394.11 92.8178 3392.91 87.8906 3390.57 83.576C3388.22 79.2081 3384.95 75.7724 3380.74 73.2688C3376.59 70.7653 3371.74 69.5135 3366.2 69.5135C3360.29 69.5135 3355.09 70.9517 3350.62 73.8281C3346.14 76.6513 3342.65 80.38 3340.15 85.0142C3337.7 89.5952 3336.45 94.6289 3336.4 100.115V117.134C3336.4 124.272 3337.7 130.398 3340.31 135.511C3342.92 140.572 3346.57 144.46 3351.26 147.177C3355.94 149.84 3361.43 151.172 3367.72 151.172C3371.92 151.172 3375.73 150.586 3379.14 149.414C3382.55 148.189 3385.51 146.404 3388.01 144.061C3390.51 141.717 3392.41 138.814 3393.68 135.352L3420.69 138.388C3418.99 145.526 3415.74 151.758 3410.94 157.085C3406.2 162.358 3400.13 166.46 3392.73 169.389C3385.32 172.266 3376.85 173.704 3367.32 173.704Z" fill="#262625"/>
<path d="M3552.35 48.5796L3508.64 171.307H3476.68L3432.98 48.5796H3463.82L3492.02 139.746H3493.3L3521.58 48.5796H3552.35Z" fill="#262625"/>
<path fill-rule="evenodd" clip-rule="evenodd" d="M2132.81 143.989C2157.16 134.055 2168.85 106.258 2158.92 81.904C2148.98 57.5498 2121.19 45.8604 2096.83 55.7951C2072.48 65.7298 2060.79 93.5264 2070.72 117.881C2080.66 142.235 2108.46 153.924 2132.81 143.989ZM2106.15 98.729L2100.95 104.826C2100.81 104.987 2100.92 105.236 2101.13 105.243L2108.9 105.508C2109 105.512 2109.09 105.573 2109.12 105.666L2110.42 108.843C2110.49 109.015 2110.36 109.201 2110.17 109.191L2096.93 108.523C2096.84 108.518 2096.75 108.456 2096.71 108.365L2095.82 106.188C2095.79 106.102 2095.8 106.005 2095.86 105.933L2104.47 95.2486C2104.59 95.0985 2104.83 95.1333 2104.9 95.3118L2106.19 98.4692C2106.23 98.5568 2106.21 98.657 2106.15 98.729ZM2128.43 93.6145L2120.45 92.8941C2120.36 92.8856 2120.28 92.8252 2120.24 92.7376L2118.95 89.5802C2118.88 89.4017 2119.02 89.2105 2119.22 89.2332L2132.84 90.8481C2132.93 90.859 2133.01 90.9186 2133.05 91.0039L2133.93 93.1817C2133.97 93.2726 2133.95 93.3768 2133.89 93.449L2124.89 103.187C2124.77 103.324 2124.54 103.283 2124.47 103.111L2123.18 99.9341C2123.14 99.8417 2123.16 99.7359 2123.23 99.6637L2128.59 94.0414C2128.74 93.8881 2128.64 93.6336 2128.43 93.6145ZM2112.43 90.0503L2115.63 88.7456C2115.79 88.6792 2115.97 88.7948 2115.98 88.9705L2116.75 109.388C2116.75 109.494 2116.69 109.592 2116.59 109.632L2113.39 110.937C2113.23 111.003 2113.05 110.887 2113.04 110.712L2112.28 90.2942C2112.27 90.1879 2112.33 90.0905 2112.43 90.0503Z" fill="#A2B87E"/>
<path fill-rule="evenodd" clip-rule="evenodd" d="M3606.97 65.0453C3583.34 76.8409 3573.75 105.558 3585.55 129.186C3597.34 152.815 3626.06 162.407 3649.69 150.612C3673.31 138.816 3682.91 110.099 3671.11 86.4706C3659.32 62.8421 3630.6 53.2497 3606.97 65.0453ZM3605.81 113.262C3605.47 113.352 3605.26 113.705 3605.35 114.051L3607.34 121.781C3607.43 122.128 3607.78 122.336 3608.13 122.247L3615.86 120.257C3616.2 120.168 3616.41 119.814 3616.32 119.468L3614.33 111.738C3614.24 111.391 3613.89 111.183 3613.54 111.272L3605.81 113.262ZM3641.54 104.733C3641.45 104.387 3641.66 104.033 3642 103.944L3649.73 101.954C3650.08 101.865 3650.43 102.073 3650.52 102.42L3652.51 110.15C3652.6 110.496 3652.39 110.849 3652.05 110.939L3644.32 112.929C3643.97 113.018 3643.62 112.81 3643.53 112.463L3641.54 104.733ZM3617.11 119.934C3616.77 120.023 3616.56 120.376 3616.65 120.723L3618.64 128.453C3618.73 128.799 3619.08 129.008 3619.43 128.919L3645.38 122.237C3645.72 122.148 3645.93 121.795 3645.84 121.448L3643.85 113.718C3643.76 113.371 3643.41 113.163 3643.06 113.252L3617.11 119.934ZM3609.6 93.3535C3609.51 93.0069 3609.72 92.6537 3610.07 92.5645L3617.8 90.5741C3618.14 90.4849 3618.5 90.6935 3618.59 91.04L3620.58 98.7701C3620.67 99.1166 3620.46 99.4698 3620.11 99.559L3612.38 101.549C3612.03 101.639 3611.68 101.43 3611.59 101.084L3609.6 93.3535ZM3628.29 87.8733C3627.94 87.9625 3627.73 88.3158 3627.82 88.6623L3629.81 96.3923C3629.9 96.7389 3630.25 96.9474 3630.6 96.8582L3638.33 94.8679C3638.68 94.7786 3638.89 94.4254 3638.8 94.0789L3636.81 86.3488C3636.72 86.0023 3636.36 85.7937 3636.02 85.8829L3628.29 87.8733Z" fill="#262625"/>
</svg>
