<svg width="16" height="15" viewBox="0 0 16 15" fill="none" xmlns="http://www.w3.org/2000/svg">
<path d="M11.1738 14.681C10.6563 14.8185 10.1668 14.8988 9.67772 14.925C8.84205 14.9728 8.03728 14.8711 7.28959 14.6276C6.02103 14.2131 4.95659 13.4309 4.12494 12.2982C3.60564 11.5912 3.21321 10.7861 2.95975 9.90661C2.70677 9.02911 2.62092 8.14041 2.7072 7.26825C2.79646 6.35999 3.06764 5.49889 3.51102 4.71037C3.98103 3.87532 4.61884 3.15138 5.40986 2.55283C6.0971 2.0317 6.86422 1.61807 7.69135 1.32137C7.9063 1.24347 8.12371 1.1753 8.34169 1.11735C8.7587 1.0065 9.1846 0.930662 9.608 0.89286L9.6792 0.886392C10.0072 0.855269 10.3456 0.825517 10.7471 0.876607C10.7471 0.876607 10.7803 0.880216 11.316 0.957918C11.3308 0.960226 11.3432 0.969378 11.3523 0.981483C11.7368 1.65168 12.0865 2.3519 12.392 3.06178C12.7622 3.92266 13.0785 4.81861 13.3303 5.72341C13.3367 5.74869 13.3251 5.77463 13.3009 5.78312C13.3009 5.78312 13.0762 5.87817 13.0724 5.87917C13.061 5.8822 13.0468 5.88183 13.0377 5.87801C12.5749 5.67296 12.0938 5.53094 11.6076 5.45671C11.3273 5.41285 10.8601 5.34186 10.2661 5.42501C10.1058 5.44688 9.94598 5.47897 9.78865 5.52079C9.71663 5.53994 9.64649 5.55858 9.57405 5.58407C9.12365 5.73079 8.73429 5.90281 8.38374 6.10812C7.83808 6.42966 7.46891 6.77695 7.22546 7.20503C6.95347 7.68015 6.88459 8.18225 7.01775 8.69916C7.10601 9.03906 7.24316 9.32444 7.43652 9.57619C7.71405 9.93637 8.07733 10.172 8.51541 10.2798C8.97731 10.3937 9.45558 10.3808 9.97685 10.2422C10.0565 10.2211 10.1337 10.1985 10.2118 10.1715C10.7493 9.99329 11.2401 9.75069 11.6701 9.4516C11.8424 9.33313 12.0064 9.19817 12.1594 9.0516C12.5191 8.70682 12.7241 8.37412 12.9215 8.05171C13.1362 7.70186 13.327 7.32931 13.4858 6.94242C13.4909 6.93068 13.5008 6.92182 13.5117 6.91685L13.7317 6.81893C13.7525 6.81338 13.7754 6.82391 13.7865 6.84379C14.1453 7.50836 14.4759 8.19706 14.7718 8.89288C15.1343 9.74749 15.4524 10.6347 15.7155 11.5281C15.7185 11.5398 15.719 11.55 15.7139 11.5618C15.7065 11.5804 15.6968 11.6058 15.6842 11.6361C15.4291 12.2417 14.9726 12.5956 14.443 13.0043C14.3685 13.0614 14.2926 13.1211 14.2166 13.1807C13.515 13.7327 12.7205 14.166 11.8582 14.4679C11.6276 14.5479 11.3989 14.6191 11.1771 14.678L11.1738 14.681Z" fill="#262625"/>
<path d="M8.35073 1.16893C8.76395 1.05909 9.18416 0.984764 9.60756 0.946962C9.95358 0.915195 10.3119 0.87601 10.7367 0.931283C10.7367 0.931283 10.7699 0.934892 11.3051 1.01065C11.6529 1.61586 12.0067 2.30874 12.3414 3.08561C12.7543 4.0431 13.0545 4.9392 13.2777 5.73946C13.203 5.77179 13.1277 5.80217 13.053 5.8345C12.4805 5.57972 11.9758 5.46471 11.61 5.41039C11.2965 5.36292 10.8402 5.29525 10.2543 5.37833C10.092 5.4007 9.93224 5.43279 9.77112 5.47562C9.69909 5.49477 9.62517 5.51442 9.55462 5.5394C9.13595 5.67561 8.73374 5.84482 8.35343 6.06842C7.88006 6.3479 7.45766 6.69274 7.17726 7.18255C6.90387 7.66011 6.8237 8.17352 6.96517 8.71521C7.05047 9.04344 7.18777 9.34539 7.39266 9.61068C7.67933 9.98297 8.04978 10.2229 8.49833 10.3321C9.00118 10.4559 9.49684 10.4238 9.98399 10.2943C10.0636 10.2732 10.1427 10.25 10.2227 10.2225C10.7456 10.0503 11.2379 9.81358 11.6938 9.49721C11.8708 9.37334 12.0348 9.23837 12.1878 9.0918C12.5456 8.74753 12.7455 8.42657 12.9574 8.08161C13.1268 7.80819 13.3313 7.43406 13.5259 6.96498C13.5969 6.93366 13.6679 6.90233 13.7388 6.87101C14.07 7.4827 14.4029 8.16455 14.7231 8.91621C15.1205 9.85288 15.4263 10.7392 15.6653 11.5456C15.6593 11.5618 15.6496 11.5872 15.6351 11.618C15.3499 12.296 14.8045 12.6507 14.1825 13.142C13.471 13.7028 12.6878 14.1249 11.8383 14.4213C11.6134 14.4998 11.3884 14.57 11.1609 14.6304C10.6738 14.7599 10.1796 14.8456 9.67297 14.8744C8.86721 14.9204 8.07347 14.8303 7.30147 14.5787C6.011 14.1577 4.97219 13.3728 4.16171 12.2677C3.63566 11.55 3.25377 10.7545 3.00475 9.89257C2.7572 9.03647 2.66532 8.16391 2.75334 7.27467C2.84169 6.37081 3.10826 5.52339 3.55023 4.73732C4.02816 3.88563 4.66423 3.17877 5.43497 2.59599C6.1312 2.07039 6.88793 1.66368 7.70229 1.37245C7.91534 1.29505 8.13134 1.22933 8.34933 1.17138M8.32465 1.07412C8.10667 1.13207 7.88736 1.20075 7.67053 1.27915C6.8396 1.57686 6.06918 1.99344 5.37675 2.51803C4.58054 3.12004 3.93802 3.84937 3.46521 4.68932C3.01763 5.48519 2.74554 6.35069 2.65636 7.26723C2.56917 8.14379 2.65601 9.03638 2.91096 9.92165C3.1659 10.8069 3.56122 11.6154 4.08389 12.3278C4.9218 13.4692 5.9939 14.2577 7.27341 14.6755C8.02778 14.9214 8.83873 15.0235 9.68058 14.9762C10.1734 14.949 10.6667 14.8677 11.188 14.7291C11.4098 14.6702 11.6405 14.5985 11.873 14.518C12.7409 14.2146 13.5392 13.7802 14.2455 13.2228C14.3234 13.1627 14.3974 13.1036 14.4719 13.0464C15.0062 12.6324 15.4684 12.2769 15.7281 11.6577C15.7407 11.6273 15.7518 11.5995 15.7578 11.5833C15.7667 11.5623 15.7669 11.5394 15.7615 11.518C15.4979 10.6226 15.1798 9.7354 14.8163 8.8769C14.5199 8.17913 14.1889 7.48849 13.8282 6.82442C13.8059 6.78465 13.7601 6.76361 13.7184 6.77469C13.7127 6.7762 13.7089 6.77721 13.7033 6.77872L13.4904 6.87269C13.4667 6.88313 13.4493 6.90229 13.4391 6.92577C13.2817 7.31021 13.0923 7.68031 12.879 8.02771C12.6745 8.36236 12.4794 8.67793 12.1244 9.0173C11.9747 9.16092 11.8126 9.29538 11.6422 9.41334C11.216 9.71142 10.7285 9.95107 10.1962 10.1258C10.1175 10.1508 10.0389 10.1759 9.9631 10.1961C9.44942 10.3326 8.97923 10.3455 8.52351 10.232C8.09639 10.1275 7.74216 9.89567 7.47139 9.54615C7.2819 9.30168 7.14763 9.01969 7.06135 8.68757C6.92974 8.18478 6.99779 7.69536 7.26228 7.23054C7.50202 6.81175 7.8641 6.46842 8.40316 6.15279C8.75182 5.94798 9.13788 5.77891 9.58449 5.6332C9.65553 5.61016 9.72517 5.58958 9.7953 5.57093C9.95074 5.52962 10.1105 5.49752 10.2666 5.47472C10.8506 5.39214 11.3159 5.46363 11.5938 5.50605C12.0781 5.58079 12.5545 5.71993 13.0111 5.92454C13.0316 5.93363 13.0544 5.93586 13.0753 5.93032C13.0791 5.92931 13.0847 5.9278 13.0885 5.92679L13.3133 5.83175C13.3592 5.81332 13.3844 5.76095 13.3696 5.71088C13.1173 4.80414 12.8005 3.90624 12.4299 3.04341C12.1238 2.3316 11.7718 1.62993 11.3868 0.957789C11.3718 0.930627 11.345 0.912828 11.3155 0.908211C10.7847 0.833392 10.7466 0.8269 10.7466 0.8269C10.3409 0.774873 9.99863 0.805632 9.66826 0.835314L9.59517 0.842286C9.16987 0.880592 8.74208 0.956934 8.32128 1.06879L8.32465 1.07412Z" fill="#262625"/>
<path d="M3.80423 2.4354L0.499442 2.43079C0.479575 2.43076 0.461865 2.44452 0.456058 2.46397C-0.388879 5.29371 -0.203226 6.73022 2.2437 8.75733C2.25394 8.76581 2.26799 8.76947 2.28094 8.76701C5.19421 8.21391 6.04206 7.04423 6.77992 4.15706C6.78514 4.13664 6.77629 4.11468 6.75825 4.10444L3.82607 2.4412C3.81939 2.43741 3.81187 2.43541 3.80423 2.4354Z" fill="#F588B9"/>
<path d="M4.74044 4.03715L3.12466 3.75463L1.98723 5.51957L2.80624 5.66278L1.96798 7.14338L4.25072 5.3262L3.22418 5.14671L4.74044 4.03715Z" fill="#262625"/>
</svg>
