<svg width="919" height="474" viewBox="0 0 919 474" fill="none" xmlns="http://www.w3.org/2000/svg">
<path d="M344.557 203.218C344.362 203.218 344.195 203.135 344.056 203.023C343.917 202.884 343.834 202.662 343.862 202.439L364.704 14.8533C364.732 14.5472 364.983 14.2689 365.317 14.2411C365.317 14.2411 465.079 1.71864 465.106 1.71864C465.385 1.71864 465.663 1.8856 465.746 2.16388L532.31 178.786C532.393 178.98 532.366 179.203 532.254 179.398C532.143 179.593 531.948 179.704 531.753 179.732C531.753 179.732 466.637 187.913 466.609 187.913C466.303 187.913 466.025 187.69 465.941 187.384L457.12 153.49L410.592 159.334V159.557L410.286 194.369C410.286 194.731 410.036 195.009 409.674 195.065C409.674 195.065 344.585 203.246 344.557 203.246V203.218ZM417.521 30.8263C416.659 62.2158 414.488 91.1565 410.87 119.29C420.944 115.84 428.235 114.615 438.308 114.615C440.729 114.615 443.456 114.671 446.796 114.838C435.053 92.4922 426.036 65.6664 418.523 30.7428L417.549 30.8541L417.521 30.8263Z" fill="#3F4EB5"/>
<path d="M465.106 2.41433C487.285 61.2697 509.464 120.125 531.67 179.036C509.992 181.763 488.287 184.49 466.609 187.19C463.604 175.697 460.626 164.204 457.621 152.711L409.785 158.722C409.813 159.028 409.869 159.334 409.896 159.64C409.785 171.217 409.674 182.765 409.562 194.341L344.529 202.495C351.486 139.938 358.415 77.4375 365.372 14.9089L465.106 2.41433ZM410.175 120.236C421.027 116.424 428.457 115.255 438.308 115.255C441.175 115.255 444.264 115.367 447.686 115.506C447.686 115.311 447.631 115.144 447.631 114.949C434.079 89.1529 425.536 60.1566 419.08 29.8802L416.881 30.1584C416.102 59.9618 414.015 89.8208 410.147 119.68C410.147 119.847 410.203 120.042 410.203 120.209M465.106 1.02295C465.106 1.02295 464.995 1.02295 464.939 1.02295L365.233 13.5454C364.593 13.6288 364.092 14.1297 364.037 14.7698C357.08 77.2984 350.123 139.799 343.194 202.356C343.138 202.773 343.305 203.19 343.611 203.497C343.862 203.747 344.223 203.886 344.585 203.886C344.641 203.886 344.696 203.886 344.752 203.886L409.785 195.733C410.481 195.649 411.01 195.065 411.01 194.369C411.093 185.715 411.176 177.06 411.26 168.378L411.343 159.918L456.619 154.242L465.301 187.551C465.468 188.164 466.025 188.581 466.637 188.581C466.693 188.581 466.748 188.581 466.804 188.581L478.658 187.078L531.865 180.4C532.282 180.344 532.672 180.094 532.894 179.732C533.117 179.37 533.145 178.925 533.006 178.535C510.799 119.624 488.621 60.7688 466.442 1.91343C466.247 1.35688 465.719 1.02295 465.134 1.02295H465.106ZM411.705 118.261C415.184 90.9339 417.326 62.828 418.189 32.4681C425.48 66.0004 434.218 92.047 445.571 114.059C442.761 113.947 440.423 113.892 438.308 113.892C428.513 113.892 421.306 115.06 411.705 118.261Z" fill="#3F4EB5"/>
<path d="M191.732 187.524C191.342 187.524 191.036 187.217 191.036 186.828V3.33279C191.036 2.9432 191.342 2.6371 191.732 2.6371H253.732C254.094 2.6371 254.4 2.91537 254.428 3.30496C255.819 27.6541 256.459 52.3372 256.32 76.7141C256.208 96.11 255.596 115.784 254.483 135.18C266.672 133.872 279.055 133.176 291.299 133.148H292.412C304.573 133.148 316.873 133.789 328.95 135.041C329.312 135.069 329.562 135.375 329.562 135.736V186.828C329.562 187.217 329.256 187.524 328.866 187.524H191.704H191.732Z" fill="#3F4EB5"/>
<path d="M253.732 3.33279C255.068 26.4853 255.791 50.9736 255.624 76.7141C255.513 97.3065 254.845 117.064 253.76 135.959C265.058 134.707 277.636 133.872 291.299 133.844C291.661 133.844 292.05 133.844 292.412 133.844C305.686 133.844 317.902 134.596 328.894 135.736V186.828H191.732V3.33279H253.732ZM253.732 1.94141H191.732C190.953 1.94141 190.341 2.55361 190.341 3.33279V186.828C190.341 187.607 190.953 188.219 191.732 188.219H328.894C329.673 188.219 330.286 187.607 330.286 186.828V135.736C330.286 135.013 329.757 134.429 329.033 134.345C316.9 133.093 304.601 132.453 292.412 132.453H291.299C279.305 132.481 267.173 133.148 255.235 134.401C256.292 115.255 256.904 95.8595 257.015 76.7141C257.155 52.3093 256.515 27.5984 255.123 3.2493C255.068 2.52579 254.483 1.94141 253.732 1.94141Z" fill="#3F4EB5"/>
<path d="M835.441 218.467C835.08 218.439 834.801 218.105 834.829 217.744C835.525 206.334 836.527 194.758 837.807 183.377C839.031 172.357 840.562 161.254 842.315 150.345L793.116 144.863C791.557 153.518 790.194 162.339 789.108 171.132C787.411 184.657 786.242 198.459 785.658 212.15C785.658 212.345 785.546 212.512 785.407 212.651C785.268 212.763 785.129 212.818 784.962 212.818L723.185 205.917C722.99 205.917 722.823 205.806 722.712 205.666C722.6 205.527 722.545 205.333 722.573 205.166L742.97 22.7558C742.998 22.394 743.304 22.1436 743.666 22.1436L805.36 29.0448C805.721 29.0726 806 29.4066 805.972 29.7683C805.36 42.0681 804.33 54.507 802.855 66.779C801.714 76.463 800.295 86.2027 798.625 95.8032L847.769 101.285C848.409 90.9055 849.327 80.4145 850.44 70.0905C851.72 58.4864 853.307 46.7988 855.171 35.306C855.227 34.9721 855.533 34.7216 855.867 34.7216L917.616 41.6229C918.006 41.6785 918.284 42.0125 918.228 42.402L897.859 224.784C897.859 224.979 897.747 225.146 897.608 225.257C897.497 225.368 897.33 225.396 897.163 225.396L835.469 218.495L835.441 218.467Z" fill="#3F4EB5"/>
<path d="M743.643 22.8118L805.253 29.6852C804.669 41.3449 803.695 53.7004 802.136 66.6402C800.912 77.0199 799.437 86.9544 797.795 96.3601C814.659 98.2524 831.522 100.117 848.414 102.009C849.054 91.7964 849.916 81.1384 851.141 70.1187C852.476 57.9858 854.062 46.3817 855.871 35.362L917.537 42.2633L897.167 224.645L835.557 217.772C836.225 206.808 837.199 195.343 838.535 183.433C839.843 171.689 841.429 160.447 843.154 149.733C826.291 147.841 809.427 145.977 792.564 144.084C791.005 152.655 789.614 161.644 788.417 171.022C786.608 185.492 785.523 199.239 784.967 212.095L723.273 205.194C730.063 144.391 736.853 83.5872 743.67 22.7839M743.67 21.3926C742.975 21.3926 742.363 21.9213 742.279 22.617L731.899 115.478L721.881 204.999C721.854 205.361 721.937 205.722 722.188 206.029C722.41 206.307 722.744 206.502 723.134 206.529L784.827 213.431C784.827 213.431 784.939 213.431 784.994 213.431C785.328 213.431 785.634 213.319 785.913 213.097C786.219 212.846 786.386 212.485 786.386 212.095C786.97 198.459 788.139 184.685 789.836 171.133C790.922 162.618 792.23 153.991 793.732 145.531L798.435 146.06L841.568 150.874C839.843 161.588 838.368 172.441 837.171 183.21C835.891 194.591 834.889 206.168 834.194 217.605C834.138 218.356 834.694 218.996 835.418 219.08L897.028 225.953C897.028 225.953 897.14 225.953 897.195 225.953C897.891 225.953 898.503 225.424 898.587 224.729L918.956 42.3467C918.984 41.985 918.901 41.6232 918.65 41.3171C918.428 41.0388 918.094 40.8441 917.704 40.8162L856.038 33.915C856.038 33.915 855.927 33.915 855.871 33.915C855.203 33.915 854.619 34.4159 854.508 35.0837C852.643 46.6044 851.029 58.3198 849.777 69.8961C848.664 79.9975 847.774 90.2658 847.133 100.395H846.966L799.437 95.0522C801.051 85.6743 802.442 76.1573 803.555 66.7237C805.002 54.4517 806.06 41.985 806.672 29.6574C806.7 28.9338 806.171 28.2938 805.448 28.2103L743.837 21.3369C743.837 21.3369 743.726 21.3369 743.67 21.3369V21.3926Z" fill="#3F4EB5"/>
<path d="M612.04 220.943C588.637 220.943 565.429 214.264 553.685 210.313C553.435 210.229 553.24 209.979 553.212 209.728L546.84 139.77C546.84 139.519 546.923 139.269 547.146 139.13C547.257 139.046 547.396 139.018 547.535 139.018C547.535 139.018 552.127 138.629 552.155 138.629C552.266 138.629 552.405 138.657 552.489 138.712L582.542 155.826C591.781 159.193 599.462 160.084 605.918 160.668C609.591 161.002 613.153 161.169 616.52 161.169C621.223 161.169 625.787 160.835 630.072 160.195C632.771 159.806 635.721 158.999 638.81 157.858C639.951 157.44 641.203 156.411 642.233 155.075C642.706 154.491 642.873 153.906 642.761 153.35C642.65 152.737 642.149 152.125 641.314 151.652C638.81 150.149 635.888 149.621 633.133 149.203C629.209 148.619 625.313 148.035 621.39 147.478C615.629 146.643 609.674 145.808 603.831 144.834C591.086 142.719 581.095 139.909 572.33 135.985C561.783 131.254 554.437 125.578 549.205 118.148C544.697 111.747 542.137 104.512 541.413 95.9969C540.328 83.3632 543.278 71.7869 550.179 61.6577C553.936 56.12 558.778 51.278 564.928 46.7699C573.638 40.4252 583.739 35.778 595.844 32.55C605.194 30.0455 615.129 28.7655 626.232 28.5707C626.983 28.5707 627.901 28.5707 628.959 28.5707C641.398 28.5707 653.058 30.2682 663.66 33.5796C673.928 36.8076 682.416 41.427 684.03 42.3175C685.866 43.3471 687.397 44.2376 688.454 44.9055C688.649 45.0168 688.76 45.2116 688.788 45.4342C691.042 65.4701 692.907 85.7564 694.298 105.737L694.354 106.404C694.354 106.766 694.103 107.1 693.714 107.128C693.714 107.128 689.512 107.518 689.484 107.518C689.345 107.518 689.178 107.462 689.066 107.378C681.47 101.507 673.177 96.6648 664.356 93.0194C658.317 90.5149 648.522 87.1756 636.222 85.5894C632.41 85.0885 628.569 84.8381 624.813 84.8381C619.692 84.8381 614.572 85.3111 609.591 86.2294C607.42 86.619 605.222 87.4817 603.274 88.233C602.578 88.5113 601.771 89.0679 601.076 89.847C600.157 90.8488 599.74 92.0454 599.963 93.1307C600.185 94.1325 600.909 94.9673 602.022 95.4404C604.749 96.637 607.198 97.3605 609.452 97.6388C615.49 98.4179 621.64 99.0023 627.595 99.5867L631.074 99.9206C644.654 101.256 656.87 102.676 668.697 106.46C677.268 109.215 684.141 112.749 689.707 117.341C697.359 123.63 702.229 131.644 704.205 141.133C706.403 151.763 706.153 162.338 703.453 172.551C700.643 183.236 694.799 192.364 686.145 199.683C678.715 205.944 669.81 210.674 658.901 214.153C650.553 216.824 642.845 218.466 635.331 219.245C635.248 219.245 624.117 220.831 613.403 220.943H612.04Z" fill="#3F4EB5"/>
<path d="M628.987 29.2942C636.027 29.2942 649.301 29.8229 663.465 34.2753C673.845 37.559 682.277 42.1505 683.696 42.9575C685.532 43.9872 687.035 44.8776 688.093 45.5177C690.347 65.4701 692.183 85.5616 693.602 105.792C693.602 105.931 693.63 106.321 693.658 106.46L689.484 106.85C683.362 102.119 675.097 96.7483 664.606 92.3793C660.961 90.8767 650.497 86.7303 636.278 84.8937C632.437 84.3928 628.597 84.1424 624.785 84.1424C619.665 84.1424 614.544 84.5876 609.424 85.5338C607.226 85.9512 605.083 86.7582 602.996 87.5652C602.077 87.9269 601.215 88.6226 600.547 89.3461C598.376 91.6836 598.822 94.8003 601.744 96.0526C604.165 97.11 606.752 97.9727 609.368 98.3066C616.548 99.2528 623.783 99.8928 630.99 100.588C643.652 101.841 656.286 103.176 668.474 107.1C676.015 109.521 683.111 112.805 689.233 117.842C696.691 123.964 701.533 131.755 703.481 141.245C705.624 151.652 705.457 162.06 702.73 172.356C699.891 183.069 694.103 191.974 685.644 199.126C677.685 205.832 668.502 210.313 658.651 213.457C650.998 215.878 643.207 217.715 635.22 218.522C635.22 218.522 624.145 220.08 613.375 220.219C612.93 220.219 612.485 220.219 612.068 220.219C586.689 220.219 561.867 212.316 553.936 209.617C553.88 209.088 553.045 199.738 552.127 189.859C551.07 178.283 548.621 151.235 547.563 139.658C551.682 139.297 552.155 139.269 552.155 139.269L582.209 156.383C591.67 159.833 599.545 160.752 605.862 161.308C609.424 161.614 612.986 161.809 616.52 161.809C621.084 161.809 625.62 161.503 630.155 160.835C633.161 160.39 636.166 159.527 639.033 158.47C640.48 157.941 641.815 156.689 642.761 155.464C644.069 153.767 643.513 152.125 641.648 151.012C639.06 149.482 636.111 148.925 633.217 148.48C623.449 146.977 613.654 145.753 603.914 144.139C593.173 142.358 582.598 139.825 572.608 135.345C563.592 131.282 555.55 125.967 549.762 117.73C545.17 111.191 542.777 103.872 542.081 95.9413C541.024 83.6137 543.751 72.2878 550.736 62.0473C554.687 56.2591 559.668 51.4728 565.317 47.3543C574.612 40.5922 584.963 36.1954 595.983 33.2457C605.89 30.6021 615.991 29.4612 626.204 29.2942C626.955 29.2942 627.846 29.2942 628.903 29.2942M628.903 27.9028C627.846 27.9028 626.955 27.9028 626.176 27.9028C615.017 28.0698 605.027 29.3777 595.621 31.8822C583.461 35.138 573.276 39.813 564.482 46.2134C558.249 50.7493 553.379 55.6748 549.567 61.2681C542.554 71.5365 539.577 83.2519 540.69 96.0526C541.413 104.568 544.085 112.109 548.621 118.537C553.936 126.079 561.366 131.811 572.024 136.597C580.817 140.549 590.891 143.387 603.691 145.502C609.535 146.476 615.518 147.311 621.278 148.146C625.202 148.702 629.098 149.259 633.022 149.871C635.721 150.289 638.559 150.817 640.953 152.236C641.593 152.626 641.982 153.043 642.066 153.461C642.121 153.795 641.982 154.184 641.648 154.63C640.674 155.882 639.533 156.828 638.532 157.19C635.498 158.331 632.604 159.082 629.933 159.472C625.675 160.112 621.139 160.418 616.492 160.418C613.153 160.418 609.591 160.251 605.946 159.917C599.545 159.333 591.948 158.442 582.737 155.103C573.526 151.763 552.767 138.044 552.767 138.044C552.544 137.933 552.322 137.85 552.071 137.85C552.016 137.85 551.988 137.85 551.932 137.85L547.424 138.239C547.174 138.239 546.895 138.323 546.673 138.49C546.255 138.768 546.005 139.269 546.061 139.77L550.596 189.971L551.598 200.879C552.043 205.832 552.377 209.394 552.405 209.728C552.461 210.285 552.823 210.758 553.351 210.925C565.15 214.904 588.442 221.611 611.928 221.611C612.374 221.611 612.819 221.611 613.264 221.611C624.006 221.499 635.192 219.913 635.304 219.913C642.817 219.134 650.553 217.464 658.957 214.793C669.949 211.287 678.937 206.528 686.423 200.211C695.216 192.809 701.116 183.57 703.954 172.745C706.681 162.421 706.932 151.736 704.733 140.994C702.73 131.338 697.777 123.212 690.013 116.812C684.391 112.193 677.435 108.575 668.78 105.82C656.87 102.008 644.626 100.588 630.99 99.2528L627.456 98.9188C621.529 98.3623 615.379 97.7501 609.396 96.9709C607.226 96.6926 604.805 95.9691 602.161 94.8282C601.243 94.4386 600.658 93.7986 600.491 93.0194C600.324 92.1567 600.658 91.1828 601.437 90.3479C602.077 89.6522 602.745 89.1513 603.385 88.9009C605.389 88.1217 607.476 87.3147 609.563 86.9251C614.516 86.0068 619.581 85.5616 624.673 85.5616C628.402 85.5616 632.187 85.812 635.999 86.2851C645.683 87.5373 655.339 90.0975 663.966 93.6594C672.732 97.3048 680.997 102.091 688.51 107.935C688.76 108.13 689.066 108.213 689.373 108.213C689.428 108.213 689.456 108.213 689.512 108.213L693.686 107.824C694.437 107.768 694.994 107.1 694.938 106.349C694.938 106.21 694.91 105.764 694.882 105.625C693.491 85.6451 691.627 65.3588 689.373 45.3229C689.317 44.9055 689.094 44.5159 688.733 44.2933C687.202 43.3471 685.755 42.5123 684.28 41.6775C682.026 40.4252 673.845 36.0563 663.799 32.884C653.141 29.5446 641.398 27.8472 628.903 27.8472V27.9028Z" fill="#3F4EB5"/>
<path d="M97.0907 223.839C89.4938 223.839 82.4812 223.171 75.6635 221.78C64.0037 219.442 53.2901 215.212 43.8565 209.285C27.8557 199.211 15.9455 184.936 8.45983 166.792C3.7848 155.466 1.19683 143.278 0.779421 130.589C0.362007 117.927 2.28211 105.711 6.5119 94.3293C10.9087 82.4747 17.6429 71.9002 26.4921 62.9119C35.87 53.3949 47.168 45.9649 60.1357 40.7612C71.4058 36.2253 83.3995 33.4147 95.8106 32.3851C99.0386 32.1068 102.267 31.9677 105.467 31.9677C111.589 31.9677 117.711 32.4686 123.666 33.4703L124.668 33.6373C129.287 34.3887 134.046 35.1957 139.389 37.3106C139.389 37.3106 139.834 37.4775 146.93 40.4272C147.125 40.5107 147.264 40.6777 147.347 40.8725C150.297 51.2244 152.662 61.8545 154.388 72.4568C156.475 85.3131 157.699 98.4478 158.005 111.471C158.005 111.833 157.755 112.139 157.393 112.167C157.393 112.167 153.97 112.64 153.915 112.64C153.748 112.64 153.553 112.584 153.442 112.501C147.793 108.104 141.67 104.486 135.242 101.759C131.541 100.173 125.364 97.5573 116.904 96.5555C114.622 96.2772 112.312 96.1381 110.003 96.1381C108.945 96.1381 107.916 96.1381 106.83 96.2216C100.124 96.5833 94.1688 97.5016 88.6311 99.0043C80.0046 101.37 73.7155 104.709 68.8735 109.579C63.475 114.977 60.7757 121.461 60.8035 128.863C60.8314 133.733 61.7218 138.046 63.5028 142.109C66.0629 147.925 70.2371 152.378 75.8861 155.383C81.8412 158.555 88.4642 160.086 96.1167 160.086C97.2855 160.086 98.4264 160.058 99.5952 159.975C107.61 159.502 115.206 157.999 122.163 155.522C124.946 154.548 127.673 153.324 130.289 151.905C136.439 148.565 140.418 144.836 144.258 141.219C148.433 137.295 152.356 132.982 155.89 128.362C156.002 128.223 156.169 128.14 156.336 128.112C156.336 128.112 159.675 127.583 159.703 127.583C160.009 127.583 160.287 127.806 160.371 128.112C162.986 138.297 165.129 148.704 166.771 159.084C168.775 171.829 170.055 184.852 170.556 197.764C170.556 197.931 170.528 198.071 170.416 198.21C170.249 198.432 170.027 198.738 169.749 199.1C164.127 206.308 156.614 209.424 147.904 213.014C146.679 213.515 145.427 214.044 144.175 214.572C132.599 219.47 120.16 222.448 107.248 223.421C103.797 223.672 100.402 223.811 97.1464 223.811L97.0907 223.839Z" fill="#3F4EB5"/>
<path d="M105.411 32.6912C111.478 32.6912 117.516 33.1921 123.471 34.1939C128.341 35.0009 133.406 35.7522 139.055 38.0062C139.055 38.0062 139.5 38.1732 146.596 41.0951C149.267 50.4452 151.716 60.9918 153.609 72.5959C155.946 86.8993 156.948 99.9783 157.226 111.499C156.085 111.666 154.944 111.805 153.803 111.972C146.819 106.518 140.279 103.178 135.437 101.147C131.291 99.3939 125.252 96.8616 116.904 95.8876C114.594 95.6094 112.285 95.4702 109.919 95.4702C108.862 95.4702 107.776 95.4702 106.719 95.5537C100.486 95.8876 94.3636 96.7225 88.3528 98.3643C80.8672 100.424 73.8547 103.54 68.2892 109.106C62.8628 114.532 59.9687 121.127 60.0244 128.891C60.0522 133.594 60.887 138.13 62.7793 142.415C65.4229 148.426 69.6805 152.962 75.4687 156.023C81.9525 159.474 88.8816 160.809 96.0332 160.809C97.202 160.809 98.3708 160.782 99.5673 160.698C107.359 160.253 114.956 158.834 122.33 156.218C125.197 155.188 127.924 153.964 130.539 152.545C136.662 149.205 140.53 145.616 144.648 141.747C147.932 138.686 152.05 134.401 156.363 128.808C157.449 128.641 158.534 128.474 159.619 128.307C162.04 137.685 164.239 148.009 166.02 159.223C168.218 173.193 169.331 186.16 169.804 197.82C169.665 198.015 169.442 198.321 169.136 198.683C162.847 206.753 154.109 209.563 143.841 213.932C132.098 218.913 119.854 221.78 107.136 222.726C103.769 222.976 100.43 223.115 97.0907 223.115C89.939 223.115 82.843 222.503 75.7748 221.084C64.5324 218.83 53.9301 214.795 44.1905 208.673C27.9113 198.432 16.3629 184.212 9.07204 166.514C4.34135 155.021 1.8647 143 1.44728 130.561C1.02987 118.205 2.81084 106.184 7.12411 94.5797C11.493 82.7808 18.116 72.3733 26.9374 63.4128C36.4822 53.701 47.6967 46.4937 60.3305 41.429C71.7398 36.8653 83.5665 34.1104 95.7828 33.1086C98.983 32.8303 102.183 32.719 105.383 32.719M105.383 31.3276C102.183 31.3276 98.9273 31.4668 95.6715 31.745C83.2047 32.7747 71.1554 35.6131 59.8017 40.1768C46.7506 45.4084 35.3691 52.894 25.9356 62.4667C17.0029 71.5385 10.2408 82.1686 5.81621 94.1345C1.55859 105.572 -0.36151 117.844 0.0559036 130.616C0.473317 143.389 3.08911 155.633 7.79197 167.043C15.3332 185.326 27.3269 199.712 43.4669 209.869C52.984 215.852 63.7811 220.11 75.5243 222.475C82.3977 223.867 89.4659 224.535 97.1185 224.535C100.374 224.535 103.797 224.395 107.276 224.145C120.271 223.171 132.766 220.193 144.425 215.24C145.705 214.711 146.93 214.183 148.154 213.682C156.948 210.036 164.545 206.92 170.277 199.545C170.556 199.184 170.806 198.85 170.945 198.655C171.14 198.404 171.223 198.098 171.223 197.792C170.722 184.852 169.442 171.829 167.439 159.028C165.797 148.621 163.654 138.186 161.011 128.001C160.844 127.388 160.287 126.943 159.675 126.943C159.591 126.943 159.536 126.943 159.452 126.943L156.196 127.444C155.835 127.5 155.529 127.695 155.306 127.973C151.8 132.564 147.904 136.85 143.758 140.746C139.778 144.502 135.994 148.037 129.927 151.32C127.367 152.712 124.668 153.936 121.913 154.91C115.012 157.387 107.47 158.861 99.5395 159.307C98.3708 159.362 97.202 159.418 96.0889 159.418C88.5476 159.418 82.036 157.915 76.1644 154.771C70.6545 151.849 66.5917 147.48 64.0872 141.831C62.334 137.879 61.4714 133.622 61.4436 128.863C61.3879 121.656 64.0315 115.339 69.2909 110.052C74.0495 105.293 80.2272 101.982 88.7424 99.6722C94.2523 98.1695 100.152 97.279 106.803 96.9172C107.86 96.8616 108.89 96.8338 109.919 96.8338C112.201 96.8338 114.511 96.9729 116.737 97.2234C125.057 98.1973 131.207 100.813 134.881 102.371C141.281 105.099 147.347 108.66 152.913 113.029C153.163 113.224 153.469 113.336 153.775 113.336C153.831 113.336 153.915 113.336 153.97 113.336L157.393 112.862C158.089 112.779 158.617 112.167 158.59 111.443C158.284 98.3921 157.059 85.2297 154.972 72.3455C153.247 61.7153 150.854 51.0574 147.904 40.6777C147.793 40.2603 147.486 39.9263 147.097 39.7594C140.056 36.8653 139.556 36.6427 139.556 36.6427C134.157 34.5 129.343 33.693 124.696 32.9138L123.666 32.7468C117.683 31.745 111.533 31.2441 105.355 31.2441L105.383 31.3276Z" fill="#3F4EB5"/>
<path d="M373.522 323.45V314.403C378.713 314.403 382.314 313.368 384.324 311.298C386.335 309.227 387.34 305.881 387.34 301.26V291.313C387.34 285.762 388.105 281.321 389.635 277.99C391.196 274.629 393.356 272.094 396.117 270.383C398.908 268.673 402.208 267.533 406.019 266.963C409.83 266.392 414.001 266.107 418.532 266.107V280.421C414.991 280.421 412.291 280.886 410.43 281.816C408.6 282.716 407.355 284.126 406.694 286.047C406.034 287.937 405.704 290.338 405.704 293.249V306.392C405.704 308.672 405.284 310.848 404.444 312.918C403.604 314.958 402.043 316.774 399.763 318.364C397.482 319.925 394.227 321.17 389.996 322.1C385.765 323 380.273 323.45 373.522 323.45ZM418.532 380.028C414.001 380.028 409.83 379.743 406.019 379.173C402.208 378.603 398.908 377.463 396.117 375.752C393.356 374.042 391.196 371.506 389.635 368.146C388.105 364.815 387.34 360.374 387.34 354.822V344.83C387.34 340.209 386.335 336.863 384.324 334.793C382.314 332.722 378.713 331.687 373.522 331.687V322.64C380.273 322.64 385.765 323.105 389.996 324.036C394.227 324.936 397.482 326.181 399.763 327.771C402.043 329.332 403.604 331.147 404.444 333.218C405.284 335.258 405.704 337.434 405.704 339.744V352.887C405.704 355.768 406.034 358.153 406.694 360.044C407.355 361.964 408.6 363.374 410.43 364.275C412.291 365.205 414.991 365.67 418.532 365.67V380.028ZM373.522 331.687V314.403H389.681V331.687H373.522Z" fill="#3F4EB5"/>
<path d="M840.262 332.623L841.095 323.615C835.926 323.137 832.436 321.774 830.625 319.527C828.814 317.28 828.121 313.856 828.547 309.255L829.463 299.35C829.975 293.822 829.622 289.329 828.405 285.872C827.161 282.382 825.243 279.658 822.652 277.7C820.031 275.74 816.849 274.301 813.107 273.382C809.365 272.463 805.238 271.795 800.726 271.377L799.407 285.63C802.933 285.956 805.579 286.668 807.346 287.766C809.086 288.831 810.196 290.35 810.676 292.323C811.16 294.266 811.267 296.687 810.999 299.585L809.788 312.672C809.578 314.943 809.796 317.148 810.442 319.287C811.09 321.396 812.477 323.348 814.601 325.141C816.728 326.905 819.855 328.445 823.983 329.761C828.113 331.047 833.539 332.001 840.262 332.623ZM790.23 384.814C794.742 385.231 798.922 385.332 802.769 385.115C806.616 384.898 810.008 384.067 812.944 382.621C815.851 381.172 818.235 378.847 820.099 375.644C821.929 372.468 823.101 368.117 823.612 362.589L824.533 352.639C824.958 348.038 826.268 344.799 828.46 342.922C830.653 341.046 834.334 340.347 839.503 340.825L840.336 331.817C833.614 331.195 828.103 331.152 823.804 331.688C819.508 332.195 816.152 333.135 813.734 334.508C811.32 335.852 809.599 337.516 808.571 339.5C807.547 341.455 806.928 343.582 806.715 345.883L805.504 358.97C805.239 361.838 804.69 364.183 803.859 366.005C803.025 367.856 801.655 369.146 799.749 369.874C797.811 370.628 795.079 370.843 791.553 370.516L790.23 384.814ZM839.503 340.825L841.095 323.615L825.005 322.126L823.413 339.337L839.503 340.825Z" fill="#3F4EB5"/>
<path d="M292.815 372.427C281.339 372.222 269.888 372.042 258.412 371.888C257.719 371.888 256.949 371.708 256.974 370.424C257.514 335.456 258.053 300.463 258.566 265.469C258.566 265.084 258.618 264.648 258.951 264.339C259.182 264.108 259.516 263.98 259.901 263.98C259.927 263.98 260.132 263.98 260.158 263.98C260.98 264.057 287.501 264.494 338.977 265.315C339.285 265.315 339.568 265.546 339.593 265.88C340.261 270.809 340.543 275.816 340.466 280.797C340.389 285.752 339.953 290.758 339.131 295.662C339.08 295.97 338.823 296.201 338.489 296.201L295.562 295.559C295.948 297.793 296.127 300.078 296.127 302.337C296.127 304.776 295.871 307.189 295.383 309.577L329.047 310.168C329.355 310.168 329.638 310.424 329.663 310.732C330.998 321.721 331.229 328.062 329.227 338.897C329.175 339.205 328.893 339.436 328.585 339.436L294.741 338.845C294.381 359.41 294.227 370.168 294.279 370.809C294.356 371.477 294.125 371.862 293.919 372.042C293.586 372.376 293.149 372.401 292.79 372.401H292.738L292.815 372.427Z" fill="#3F4EB5"/>
<path d="M259.875 264.647C259.875 264.647 260.029 264.647 260.055 264.647C260.748 264.724 293.097 265.264 338.951 265.982C339.516 270.244 339.901 275.225 339.824 280.796C339.747 286.368 339.208 291.323 338.515 295.559L294.818 294.891C295.203 296.92 295.536 299.436 295.511 302.337C295.511 305.443 295.074 308.113 294.612 310.219C307.963 310.424 315.722 310.629 329.072 310.835C330.382 321.721 330.639 327.908 328.636 338.794C315.285 338.588 307.526 338.383 294.176 338.178C293.842 356.868 293.637 370.116 293.714 370.861C293.714 370.938 293.765 371.348 293.534 371.579C293.406 371.708 293.2 371.759 292.866 371.759C292.866 371.759 292.841 371.759 292.815 371.759C281.339 371.554 269.888 371.4 258.412 371.22C257.796 371.22 257.59 371.092 257.59 370.398C258.129 335.43 258.669 300.437 259.182 265.443C259.182 265.109 259.233 264.878 259.362 264.75C259.516 264.596 259.721 264.57 259.875 264.57M259.875 263.287C259.31 263.287 258.823 263.466 258.463 263.826C257.924 264.365 257.898 265.084 257.898 265.418C257.385 300.411 256.846 335.379 256.307 370.373C256.307 371.323 256.64 372.452 258.386 372.504C269.862 372.658 281.313 372.837 292.789 373.043C293.303 373.043 293.945 372.992 294.432 372.504C294.689 372.247 295.074 371.682 294.972 370.732C294.92 369.936 295.074 359.41 295.434 339.487L328.045 340.077H328.636C329.252 340.077 329.791 339.641 329.894 339.025C331.897 328.113 331.665 321.721 330.33 310.681C330.253 310.039 329.714 309.551 329.072 309.551L296.153 308.961C296.538 306.778 296.743 304.57 296.769 302.337C296.769 300.283 296.64 298.229 296.332 296.201L338.489 296.843C339.105 296.843 339.644 296.38 339.747 295.764C340.569 290.835 341.005 285.803 341.082 280.796C341.159 275.79 340.851 270.758 340.209 265.803C340.132 265.161 339.593 264.699 338.951 264.699C287.68 263.877 261.185 263.441 260.132 263.364C260.132 263.364 260.004 263.364 259.85 263.364L259.875 263.287Z" fill="#3F4EB5"/>
<path d="M182.574 372.228C182.574 372.228 182.497 372.228 182.472 372.228C172.69 372.049 164.68 370.534 157.234 367.53C145.09 362.601 135.848 354.565 129.789 343.628C126.733 338.108 124.68 331.92 123.678 325.194C123.062 321.034 122.882 316.824 123.165 312.716C123.832 303.037 126.631 294.282 131.483 286.683C138.826 275.129 149.558 267.222 163.396 263.242C168.094 261.882 173.152 261.06 178.389 260.803C179.776 260.726 181.162 260.701 182.549 260.701C186.348 260.701 189.84 260.957 193.28 261.496C207.452 263.73 219.134 269.841 227.992 279.648C234.384 286.708 238.646 295.129 240.649 304.654C241.933 310.739 242.215 317.055 241.496 323.422C240.366 333.538 236.798 342.652 230.893 350.483C226.503 356.31 220.829 361.163 214.051 364.86C208.146 368.069 201.496 370.251 194.256 371.381C190.739 371.92 186.785 372.228 183.165 372.228H182.549H182.574ZM181.83 298.647C177.054 298.647 172.947 299.314 169.275 300.701C165.989 301.933 163.473 303.653 161.573 305.912C159.673 308.172 158.518 310.868 158.158 313.948C157.671 318.159 158.287 321.676 160.033 324.783C162.189 328.557 165.604 331.15 170.764 332.896C174.128 334.051 177.722 334.565 182.78 334.667H183.088C187.709 334.667 191.894 333.948 195.54 332.536C198.569 331.355 200.957 329.815 202.857 327.787C205.399 325.065 206.785 321.651 206.965 317.62C207.119 314.488 206.605 311.792 205.424 309.378C203.627 305.707 200.546 302.986 196.002 301.111C192.048 299.468 187.658 298.698 182.266 298.647H181.83Z" fill="#3F4EB5"/>
<path d="M182.547 261.343C186.116 261.343 189.659 261.574 193.202 262.139C206.655 264.27 218.337 269.893 227.554 280.085C233.947 287.171 238.08 295.438 240.057 304.809C241.367 310.945 241.598 317.133 240.904 323.371C239.8 333.23 236.386 342.19 230.429 350.124C225.936 356.08 220.34 360.753 213.793 364.321C207.657 367.659 201.084 369.713 194.203 370.791C190.352 371.382 186.476 371.638 183.241 371.638C183.035 371.638 182.83 371.638 182.624 371.638C173.459 371.459 165.295 370.124 157.515 366.966C145.782 362.216 136.591 354.514 130.404 343.346C127.246 337.646 125.32 331.561 124.37 325.143C123.754 321.035 123.574 316.927 123.857 312.794C124.499 303.551 127.066 294.899 132.072 287.043C139.569 275.233 150.275 267.736 163.6 263.859C168.452 262.447 173.408 261.703 178.44 261.446C179.826 261.369 181.187 261.343 182.573 261.343M183.112 335.335C186.963 335.335 191.482 334.848 195.795 333.153C198.645 332.049 201.238 330.483 203.343 328.249C206.116 325.271 207.451 321.703 207.631 317.672C207.759 314.694 207.349 311.818 206.039 309.122C203.985 304.886 200.494 302.293 196.283 300.547C191.816 298.699 187.117 298.083 182.291 298.031C182.162 298.031 182.008 298.031 181.88 298.031C177.515 298.031 173.228 298.57 169.12 300.136C166.039 301.292 163.292 302.986 161.135 305.528C159.081 307.941 157.952 310.765 157.567 313.898C157.105 317.826 157.541 321.626 159.518 325.117C162.008 329.482 165.988 331.947 170.583 333.513C174.28 334.771 178.106 335.233 182.779 335.31C182.881 335.31 182.984 335.31 183.112 335.31M182.573 260.034C181.212 260.034 179.8 260.059 178.388 260.136C173.074 260.393 167.99 261.215 163.241 262.601C149.274 266.632 138.414 274.617 130.968 286.324C126.065 294.026 123.241 302.884 122.573 312.665C122.291 316.825 122.47 321.061 123.087 325.297C124.088 332.075 126.167 338.365 129.274 343.936C135.41 355.002 144.73 363.14 157.028 368.121C164.524 371.176 172.612 372.665 182.445 372.871C182.496 372.871 182.547 372.871 182.599 372.871H183.241C186.886 372.871 190.866 372.563 194.409 372.024C201.726 370.894 208.453 368.66 214.409 365.425C221.264 361.703 227.015 356.799 231.456 350.894C237.438 342.961 241.033 333.744 242.188 323.5C242.907 317.056 242.625 310.663 241.315 304.527C239.261 294.873 234.948 286.35 228.504 279.212C219.544 269.302 207.734 263.115 193.408 260.855C189.942 260.316 186.399 260.034 182.573 260.034ZM183.112 334.026H182.804C177.849 333.923 174.306 333.41 171.02 332.28C166.013 330.56 162.727 328.095 160.648 324.45C158.953 321.497 158.363 318.083 158.85 314.026C159.21 311.074 160.288 308.48 162.111 306.35C163.96 304.167 166.399 302.524 169.556 301.317C173.151 299.957 177.182 299.289 181.88 299.289H182.291C187.605 299.341 191.893 300.111 195.795 301.703C200.211 303.525 203.189 306.118 204.884 309.636C206.013 311.946 206.476 314.54 206.347 317.569C206.168 321.472 204.884 324.681 202.419 327.325C200.596 329.276 198.286 330.791 195.359 331.921C191.79 333.307 187.682 334 183.138 334L183.112 334.026Z" fill="#3F4EB5"/>
<path d="M448.165 370.857C448.01 370.857 447.882 370.806 447.754 370.703C447.625 370.6 447.548 370.446 447.523 370.266L436.431 264.207C436.406 263.848 436.637 263.54 436.996 263.488L447.035 262.436C458.485 261.229 469.91 260.048 481.361 258.867C485.854 258.405 489.91 258.174 493.813 258.174C496.688 258.174 499.487 258.302 502.183 258.559C508.909 259.201 514.711 260.51 519.923 262.59C529.782 266.544 537.356 273.116 542.414 282.128C544.981 286.698 546.855 291.807 548.19 297.789C549.166 302.205 549.756 306.903 549.91 311.807C550.219 320.921 548.858 328.803 545.726 335.889C542.773 342.564 538.254 348.238 532.298 352.731C526.47 357.147 519.487 360.433 510.963 362.821C505.366 364.361 499.307 365.491 492.375 366.21C492.375 366.21 448.164 370.831 448.139 370.831L448.165 370.857ZM476.945 291.139C480.796 308.777 481.849 318.662 481.618 335.915L485.032 335.555C487.6 335.299 490.193 335.016 492.76 334.734C497.099 334.246 500.462 333.219 503.338 331.473C506.65 329.471 509.089 326.672 510.527 323.18C511.81 320.074 512.375 316.685 512.247 312.808C512.041 307.237 510.937 302.872 508.781 299.021C507.189 296.223 505.109 294.04 502.542 292.526C499.487 290.703 495.995 289.779 492.17 289.779C491.785 289.779 491.425 289.779 491.04 289.779C488.678 289.881 486.29 290.138 483.954 290.369L481.233 290.651C480.154 290.754 479.076 290.857 477.998 290.985L476.919 291.088L476.945 291.139Z" fill="#3F4EB5"/>
<path d="M493.862 258.841C496.635 258.841 499.408 258.969 502.155 259.226C508.188 259.791 514.068 260.972 519.716 263.231C529.344 267.082 536.789 273.424 541.873 282.487C544.594 287.339 546.366 292.551 547.572 297.968C548.599 302.538 549.113 307.185 549.292 311.858C549.575 320.073 548.522 328.084 545.159 335.657C542.206 342.333 537.739 347.852 531.911 352.243C525.57 357.044 518.407 360.099 510.781 362.204C504.722 363.899 498.535 364.9 492.296 365.568C477.893 367.082 463.49 368.571 449.087 370.086L448.137 370.189L437.046 264.13C437.354 264.104 437.611 264.078 437.867 264.053C452.373 262.538 466.905 260.997 481.436 259.508C485.57 259.072 489.703 258.815 493.837 258.815M480.974 336.556C481.179 336.556 481.308 336.556 481.462 336.556C485.262 336.145 489.061 335.786 492.835 335.349C496.661 334.913 500.332 334.014 503.67 332.012C507.084 329.958 509.6 327.108 511.115 323.411C512.527 319.996 512.989 316.428 512.861 312.782C512.681 307.852 511.783 303.077 509.318 298.713C507.752 295.914 505.621 293.629 502.848 291.986C499.536 290.009 495.916 289.162 492.142 289.162C491.757 289.162 491.372 289.162 490.987 289.187C487.701 289.342 484.44 289.752 481.154 290.035C479.485 290.189 477.842 290.368 476.122 290.548C480.024 308.263 481.179 318.327 480.923 336.582M493.785 257.557C489.857 257.557 485.775 257.788 481.256 258.25C470.833 259.329 460.409 260.407 449.985 261.511L437.713 262.795L437.046 262.872H436.892C436.558 262.923 436.25 263.103 436.019 263.359C435.813 263.616 435.711 263.95 435.736 264.309L446.828 370.369C446.853 370.651 446.982 370.933 447.187 371.139C447.418 371.37 447.752 371.524 448.111 371.524C448.163 371.524 448.188 371.524 448.24 371.524L449.19 371.421L492.399 366.903C499.357 366.184 505.467 365.054 511.09 363.514C519.69 361.126 526.751 357.788 532.656 353.321C538.715 348.751 543.285 343 546.289 336.222C549.446 329.059 550.833 321.075 550.525 311.858C550.345 306.928 549.78 302.153 548.779 297.711C547.444 291.652 545.518 286.492 542.951 281.87C537.816 272.73 530.165 266.055 520.152 262.05C514.864 259.945 509.01 258.61 502.232 257.968C499.536 257.711 496.712 257.583 493.811 257.583L493.785 257.557ZM477.662 291.678H477.919C479.023 291.524 480.127 291.421 481.231 291.318C482.155 291.241 483.054 291.139 483.978 291.036C486.288 290.805 488.676 290.548 491.012 290.445C491.372 290.445 491.731 290.445 492.116 290.445C495.839 290.445 499.202 291.344 502.181 293.09C504.671 294.579 506.622 296.633 508.188 299.354C510.294 303.103 511.372 307.39 511.577 312.833C511.706 316.607 511.167 319.894 509.909 322.923C508.496 326.338 506.237 328.956 502.977 330.908C500.178 332.602 496.917 333.603 492.656 334.091C490.088 334.374 487.521 334.656 484.953 334.913L482.232 335.195C482.412 318.533 481.385 308.7 477.688 291.678H477.662Z" fill="#3F4EB5"/>
<path d="M563.319 370.729C562.96 370.678 562.729 370.344 562.78 370.01L577.825 264.516C577.825 264.336 577.928 264.208 578.082 264.08C578.184 264.003 578.338 263.951 578.467 263.951C578.493 263.951 658.98 275.427 658.98 275.427C659.289 275.479 659.52 275.736 659.52 276.018C659.725 280.331 659.597 284.696 659.109 288.983C658.467 294.657 657.183 300.254 655.309 305.646C655.206 305.902 654.975 306.082 654.693 306.082C654.667 306.082 611.021 299.869 611.021 299.869C611.381 300.973 611.535 302.128 611.458 303.284C611.33 305.286 610.585 306.852 609.866 307.905L649.84 313.528C650.149 313.579 650.405 313.861 650.38 314.17C650.277 318.765 649.918 323.412 649.25 327.982C648.582 332.68 647.633 337.379 646.4 341.923C646.323 342.206 646.066 342.385 645.784 342.385C645.758 342.385 605.733 336.686 605.733 336.686C606.066 337.79 606.323 339.253 606.092 340.947C605.861 342.796 605.193 344.259 604.5 345.312L648.12 351.602C648.428 351.654 648.66 351.91 648.66 352.193C648.942 357.738 648.634 363.31 647.71 368.778C646.991 373.168 645.861 377.533 644.398 381.743C644.295 382 644.064 382.18 643.781 382.18C643.756 382.18 563.294 370.704 563.294 370.704L563.319 370.729Z" fill="#3F4EB5"/>
<path d="M578.442 264.594L658.853 276.044C659.033 279.741 658.981 284.08 658.442 288.881C657.672 295.454 656.183 301.025 654.668 305.415C639.777 303.284 624.886 301.179 609.995 299.048C610.329 299.793 610.92 301.282 610.791 303.207C610.612 305.929 609.2 307.752 608.66 308.342C609.456 308.445 628.378 311.115 629.174 311.218C636.003 312.168 642.858 313.143 649.687 314.093C649.61 318.201 649.277 322.822 648.583 327.829C647.865 332.989 646.838 337.636 645.759 341.693L604.758 335.839C605.092 336.635 605.759 338.458 605.451 340.794C605.143 343.336 603.885 345.056 603.346 345.723C618.237 347.88 633.128 350.011 648.044 352.142C648.275 356.661 648.173 362.257 647.12 368.599C646.298 373.554 645.092 377.893 643.834 381.462L563.423 370.011L578.468 264.517M578.468 263.233C578.185 263.233 577.929 263.31 577.698 263.49C577.415 263.695 577.235 264.003 577.21 264.337L562.165 369.831C562.062 370.524 562.55 371.192 563.243 371.295L643.654 382.745C643.654 382.745 643.782 382.745 643.834 382.745C644.373 382.745 644.861 382.411 645.04 381.898C646.529 377.662 647.659 373.246 648.378 368.83C649.302 363.31 649.61 357.687 649.328 352.091C649.302 351.474 648.84 350.961 648.224 350.884L605.554 344.748C606.093 343.721 606.555 342.463 606.76 340.948C606.915 339.613 606.812 338.406 606.606 337.379L645.605 342.951C645.605 342.951 645.734 342.951 645.785 342.951C646.35 342.951 646.863 342.565 647.017 342.001C648.25 337.405 649.225 332.681 649.893 327.983C650.535 323.387 650.92 318.714 651.022 314.093C651.022 313.451 650.56 312.886 649.918 312.784L644.553 312.039L610.92 307.315C611.484 306.262 611.998 304.876 612.101 303.233C612.152 302.334 612.101 301.436 611.895 300.563L654.514 306.648C654.514 306.648 654.642 306.648 654.694 306.648C655.233 306.648 655.721 306.314 655.9 305.775C657.775 300.332 659.084 294.684 659.726 288.984C660.214 284.671 660.368 280.28 660.162 275.916C660.137 275.3 659.675 274.786 659.058 274.709L578.647 263.259C578.647 263.259 578.519 263.259 578.468 263.259V263.233Z" fill="#3F4EB5"/>
<path d="M274.038 454.948V449.223L296.935 439.141V445.727L281.259 452.02L281.47 451.679V452.492L281.259 452.15L296.935 458.444V465.03L274.038 454.948Z" fill="#3F4EB5"/>
<path d="M306.021 468.526H298.475L309.973 435.222H319.047L330.528 468.526H322.982L314.64 442.832H314.379L306.021 468.526ZM305.549 455.435H323.372V460.932H305.549V455.435Z" fill="#3F4EB5"/>
<path d="M354.989 454.948L332.092 465.03V458.444L347.769 452.15L347.557 452.492V451.679L347.769 452.02L332.092 445.727V439.141L354.989 449.223V454.948Z" fill="#3F4EB5"/>
<path d="M358.335 468.526V435.222H380.386V441.027H365.376V448.963H378.922V454.769H365.376V468.526H358.335Z" fill="#3F4EB5"/>
<path d="M380.926 468.526V443.548H387.642V447.906H387.902C388.358 446.356 389.122 445.185 390.195 444.394C391.268 443.591 392.504 443.19 393.903 443.19C394.25 443.19 394.624 443.212 395.025 443.255C395.426 443.299 395.778 443.358 396.082 443.434V449.581C395.757 449.483 395.307 449.397 394.732 449.321C394.158 449.245 393.632 449.207 393.155 449.207C392.136 449.207 391.225 449.429 390.423 449.874C389.631 450.307 389.003 450.915 388.536 451.695C388.081 452.476 387.853 453.376 387.853 454.395V468.526H380.926Z" fill="#3F4EB5"/>
<path d="M406.123 469.014C403.597 469.014 401.413 468.477 399.57 467.404C397.738 466.32 396.323 464.813 395.325 462.883C394.328 460.943 393.829 458.693 393.829 456.135C393.829 453.554 394.328 451.299 395.325 449.37C396.323 447.429 397.738 445.922 399.57 444.849C401.413 443.765 403.597 443.223 406.123 443.223C408.649 443.223 410.828 443.765 412.661 444.849C414.504 445.922 415.924 447.429 416.921 449.37C417.919 451.299 418.417 453.554 418.417 456.135C418.417 458.693 417.919 460.943 416.921 462.883C415.924 464.813 414.504 466.32 412.661 467.404C410.828 468.477 408.649 469.014 406.123 469.014ZM406.156 463.648C407.305 463.648 408.264 463.322 409.034 462.672C409.804 462.011 410.384 461.111 410.774 459.972C411.175 458.834 411.376 457.539 411.376 456.086C411.376 454.633 411.175 453.338 410.774 452.199C410.384 451.061 409.804 450.161 409.034 449.5C408.264 448.838 407.305 448.508 406.156 448.508C404.996 448.508 404.02 448.838 403.229 449.5C402.448 450.161 401.857 451.061 401.456 452.199C401.066 453.338 400.871 454.633 400.871 456.086C400.871 457.539 401.066 458.834 401.456 459.972C401.857 461.111 402.448 462.011 403.229 462.672C404.02 463.322 404.996 463.648 406.156 463.648Z" fill="#3F4EB5"/>
<path d="M426.186 454.086V468.526H419.258V443.548H425.861V447.955H426.153C426.706 446.502 427.633 445.353 428.934 444.507C430.235 443.651 431.813 443.223 433.666 443.223C435.401 443.223 436.913 443.602 438.203 444.361C439.494 445.12 440.496 446.204 441.212 447.613C441.927 449.012 442.285 450.681 442.285 452.622V468.526H435.358V453.858C435.368 452.329 434.978 451.137 434.187 450.28C433.395 449.413 432.306 448.979 430.918 448.979C429.986 448.979 429.162 449.18 428.446 449.581C427.742 449.982 427.189 450.568 426.788 451.337C426.397 452.096 426.197 453.012 426.186 454.086Z" fill="#3F4EB5"/>
<path d="M457.368 443.548V448.752H442.325V443.548H457.368ZM445.74 437.564H452.668V460.851C452.668 461.49 452.766 461.989 452.961 462.347C453.156 462.694 453.427 462.938 453.774 463.078C454.132 463.219 454.544 463.29 455.01 463.29C455.335 463.29 455.66 463.263 455.985 463.209C456.311 463.144 456.56 463.095 456.733 463.062L457.823 468.217C457.476 468.326 456.988 468.45 456.359 468.591C455.731 468.743 454.966 468.835 454.067 468.868C452.397 468.933 450.933 468.711 449.676 468.201C448.429 467.691 447.459 466.9 446.765 465.827C446.071 464.753 445.73 463.398 445.74 461.761V437.564Z" fill="#3F4EB5"/>
<path d="M472.08 435.222V468.526H465.152V435.222H472.08Z" fill="#3F4EB5"/>
<path d="M485.349 469.014C482.78 469.014 480.568 468.494 478.714 467.453C476.871 466.401 475.451 464.916 474.453 462.997C473.456 461.067 472.957 458.785 472.957 456.151C472.957 453.582 473.456 451.327 474.453 449.386C475.451 447.445 476.855 445.933 478.665 444.849C480.487 443.765 482.622 443.223 485.072 443.223C486.72 443.223 488.254 443.488 489.675 444.019C491.106 444.54 492.352 445.326 493.415 446.377C494.488 447.429 495.323 448.752 495.919 450.345C496.515 451.928 496.814 453.782 496.814 455.907V457.81H475.722V453.516H490.293C490.293 452.519 490.076 451.635 489.642 450.866C489.208 450.096 488.607 449.494 487.837 449.061C487.078 448.616 486.195 448.394 485.186 448.394C484.135 448.394 483.202 448.638 482.389 449.126C481.587 449.603 480.958 450.248 480.503 451.061C480.048 451.863 479.814 452.758 479.804 453.744V457.826C479.804 459.062 480.031 460.13 480.487 461.029C480.953 461.929 481.609 462.623 482.454 463.111C483.3 463.599 484.303 463.843 485.463 463.843C486.232 463.843 486.937 463.734 487.577 463.518C488.216 463.301 488.764 462.975 489.219 462.542C489.675 462.108 490.022 461.577 490.26 460.948L496.667 461.371C496.342 462.91 495.675 464.255 494.667 465.404C493.67 466.542 492.379 467.431 490.797 468.071C489.225 468.7 487.409 469.014 485.349 469.014Z" fill="#3F4EB5"/>
<path d="M518.454 450.671L512.112 451.061C512.003 450.519 511.77 450.031 511.412 449.597C511.054 449.153 510.583 448.8 509.997 448.54C509.423 448.269 508.734 448.134 507.932 448.134C506.859 448.134 505.954 448.361 505.216 448.817C504.479 449.261 504.111 449.858 504.111 450.606C504.111 451.202 504.349 451.706 504.826 452.118C505.303 452.53 506.122 452.861 507.282 453.11L511.803 454.021C514.231 454.519 516.041 455.322 517.234 456.427C518.427 457.533 519.023 458.986 519.023 460.786C519.023 462.423 518.54 463.859 517.576 465.095C516.621 466.331 515.31 467.296 513.64 467.99C511.981 468.673 510.068 469.014 507.9 469.014C504.593 469.014 501.959 468.326 499.996 466.949C498.045 465.561 496.901 463.675 496.565 461.29L503.379 460.932C503.585 461.94 504.084 462.71 504.875 463.241C505.666 463.761 506.68 464.022 507.916 464.022C509.13 464.022 510.106 463.789 510.843 463.322C511.591 462.845 511.971 462.233 511.981 461.485C511.971 460.856 511.705 460.341 511.185 459.94C510.664 459.528 509.862 459.214 508.778 458.997L504.452 458.135C502.013 457.647 500.197 456.801 499.004 455.598C497.823 454.395 497.232 452.861 497.232 450.996C497.232 449.391 497.665 448.009 498.533 446.849C499.411 445.689 500.641 444.795 502.224 444.166C503.818 443.537 505.683 443.223 507.818 443.223C510.973 443.223 513.456 443.889 515.266 445.223C517.088 446.556 518.15 448.372 518.454 450.671Z" fill="#3F4EB5"/>
<path d="M539.943 443.548V448.752H524.901V443.548H539.943ZM528.316 437.564H535.243V460.851C535.243 461.49 535.341 461.989 535.536 462.347C535.731 462.694 536.002 462.938 536.349 463.078C536.707 463.219 537.119 463.29 537.585 463.29C537.91 463.29 538.235 463.263 538.561 463.209C538.886 463.144 539.135 463.095 539.309 463.062L540.398 468.217C540.051 468.326 539.563 468.45 538.935 468.591C538.306 468.743 537.541 468.835 536.642 468.868C534.972 468.933 533.509 468.711 532.251 468.201C531.004 467.691 530.034 466.9 529.34 465.827C528.646 464.753 528.305 463.398 528.316 461.761V437.564Z" fill="#3F4EB5"/>
<path d="M551.809 469.014C549.283 469.014 547.099 468.477 545.256 467.404C543.424 466.32 542.009 464.813 541.012 462.883C540.014 460.943 539.515 458.693 539.515 456.135C539.515 453.554 540.014 451.299 541.012 449.37C542.009 447.429 543.424 445.922 545.256 444.849C547.099 443.765 549.283 443.223 551.809 443.223C554.335 443.223 556.515 443.765 558.347 444.849C560.19 445.922 561.61 447.429 562.607 449.37C563.605 451.299 564.103 453.554 564.103 456.135C564.103 458.693 563.605 460.943 562.607 462.883C561.61 464.813 560.19 466.32 558.347 467.404C556.515 468.477 554.335 469.014 551.809 469.014ZM551.842 463.648C552.991 463.648 553.951 463.322 554.72 462.672C555.49 462.011 556.07 461.111 556.46 459.972C556.861 458.834 557.062 457.539 557.062 456.086C557.062 454.633 556.861 453.338 556.46 452.199C556.07 451.061 555.49 450.161 554.72 449.5C553.951 448.838 552.991 448.508 551.842 448.508C550.682 448.508 549.706 448.838 548.915 449.5C548.134 450.161 547.543 451.061 547.142 452.199C546.752 453.338 546.557 454.633 546.557 456.086C546.557 457.539 546.752 458.834 547.142 459.972C547.543 461.111 548.134 462.011 548.915 462.672C549.706 463.322 550.682 463.648 551.842 463.648Z" fill="#3F4EB5"/>
<path d="M580.963 457.891V443.548H587.89V468.526H581.239V463.989H580.979C580.415 465.453 579.477 466.629 578.165 467.518C576.865 468.407 575.276 468.851 573.401 468.851C571.731 468.851 570.262 468.472 568.994 467.713C567.725 466.954 566.733 465.876 566.018 464.477C565.313 463.078 564.955 461.403 564.945 459.452V443.548H571.872V458.216C571.883 459.691 572.279 460.856 573.059 461.712C573.84 462.569 574.886 462.997 576.198 462.997C577.033 462.997 577.813 462.807 578.54 462.428C579.266 462.038 579.851 461.463 580.296 460.704C580.751 459.945 580.973 459.008 580.963 457.891Z" fill="#3F4EB5"/>
<path d="M610.551 450.671L604.208 451.061C604.1 450.519 603.867 450.031 603.509 449.597C603.151 449.153 602.68 448.8 602.094 448.54C601.52 448.269 600.831 448.134 600.029 448.134C598.956 448.134 598.051 448.361 597.313 448.817C596.576 449.261 596.208 449.858 596.208 450.606C596.208 451.202 596.446 451.706 596.923 452.118C597.4 452.53 598.219 452.861 599.379 453.11L603.9 454.021C606.328 454.519 608.138 455.322 609.331 456.427C610.524 457.533 611.12 458.986 611.12 460.786C611.12 462.423 610.637 463.859 609.672 465.095C608.718 466.331 607.407 467.296 605.737 467.99C604.078 468.673 602.165 469.014 599.997 469.014C596.69 469.014 594.056 468.326 592.093 466.949C590.142 465.561 588.998 463.675 588.662 461.29L595.476 460.932C595.682 461.94 596.181 462.71 596.972 463.241C597.763 463.761 598.777 464.022 600.013 464.022C601.227 464.022 602.203 463.789 602.94 463.322C603.688 462.845 604.068 462.233 604.078 461.485C604.068 460.856 603.802 460.341 603.282 459.94C602.761 459.528 601.959 459.214 600.875 458.997L596.549 458.135C594.11 457.647 592.294 456.801 591.101 455.598C589.92 454.395 589.329 452.861 589.329 450.996C589.329 449.391 589.762 448.009 590.63 446.849C591.508 445.689 592.738 444.795 594.321 444.166C595.915 443.537 597.78 443.223 599.915 443.223C603.07 443.223 605.553 443.889 607.363 445.223C609.185 446.556 610.247 448.372 610.551 450.671Z" fill="#3F4EB5"/>
<path d="M627.031 435.222L626.397 458.541H620.445L619.795 435.222H627.031ZM623.421 468.949C622.348 468.949 621.426 468.57 620.656 467.811C619.887 467.041 619.507 466.119 619.518 465.046C619.507 463.984 619.887 463.073 620.656 462.314C621.426 461.555 622.348 461.176 623.421 461.176C624.451 461.176 625.356 461.555 626.137 462.314C626.917 463.073 627.313 463.984 627.324 465.046C627.313 465.762 627.123 466.418 626.755 467.014C626.397 467.599 625.925 468.071 625.34 468.429C624.754 468.776 624.115 468.949 623.421 468.949Z" fill="#3F4EB5"/>
<path d="M638.222 454.948V449.223L661.119 439.141V445.727L645.443 452.02L645.654 451.679V452.492L645.443 452.15L661.119 458.444V465.03L638.222 454.948Z" fill="#3F4EB5"/>
<path d="M678.84 433.661L668.107 473.535H662.139L672.872 433.661H678.84Z" fill="#3F4EB5"/>
<path d="M702.761 458.07L679.864 468.152V461.566L695.541 455.273L695.329 455.614V454.801L695.541 455.143L679.864 448.849V442.263L702.761 452.346V458.07Z" fill="#3F4EB5"/>
<path fill-rule="evenodd" clip-rule="evenodd" d="M712.19 270.008L674.718 269.464C682.596 304.551 690.422 339.561 698.222 374.519L755.544 375.4C762.339 348.909 769.12 322.434 775.908 295.927C778.025 287.663 780.142 279.395 782.261 271.122C776.091 271.032 769.914 270.936 763.734 270.84C757.456 270.742 751.175 270.644 744.893 270.552C742.302 281.747 739.814 293.279 737.456 305.173C734.968 317.742 732.792 330.025 730.848 341.945L723.851 341.79C722.711 329.766 721.078 316.99 718.85 303.593C716.88 291.75 714.626 280.555 712.19 270.008Z" fill="#3F4EB5"/>
<path d="M549.894 15.4639L495.225 15.3894C492.081 15.3851 489.294 17.4373 488.414 20.4556C474.647 67.6903 478.774 93.0647 520.472 127.564C522.078 128.892 524.239 129.443 526.284 129.038C576.113 119.17 592.057 98.9244 605.156 51.228C606.021 48.0807 604.594 44.7564 601.739 43.1744L553.351 16.3601C552.293 15.7739 551.104 15.4655 549.894 15.4639Z" fill="#F1619C"/>
<path d="M568.8 44.3354L538.99 39.2432L518.005 71.0547L533.115 73.6358L517.649 100.322L559.765 67.5693L540.826 64.3342L568.8 44.3354Z" fill="#E6FFC0"/>
</svg>
