<svg width="30" height="30" viewBox="0 0 30 30" fill="none" xmlns="http://www.w3.org/2000/svg">
<path d="M29.0916 9.87109C31.9242 17.6536 27.9115 26.2589 20.1289 29.0916C12.3464 31.9242 3.74106 27.9115 0.908446 20.1289C-1.92417 12.3464 2.08854 3.74106 9.87109 0.908446C17.6536 -1.92417 26.2589 2.08854 29.0916 9.87109Z" fill="#A2B87E"/>
<path d="M11.804 20.0533C11.6118 19.9657 11.5336 19.7338 11.6335 19.5477L13.2983 16.4482L9.75652 17.0035C9.54861 17.0361 9.35619 16.8868 9.33606 16.6773L9.14825 14.7231C9.12789 14.5113 9.2921 14.3269 9.50488 14.3227L13.0723 14.2523L10.7837 11.5148C10.6472 11.3515 10.6785 11.1066 10.8517 10.9829L12.4493 9.84186C12.6205 9.71955 12.8594 9.76674 12.9713 9.94498L14.8773 12.9814L16.1228 9.69102C16.1976 9.49341 16.4239 9.40019 16.6161 9.48777L18.4111 10.3053C18.6037 10.393 18.6818 10.6255 18.5812 10.8117L16.9084 13.9065L20.4502 13.3513C20.6582 13.3187 20.8506 13.4679 20.8707 13.6774L21.0586 15.6321C21.0789 15.8438 20.9149 16.0281 20.7023 16.0325L17.1438 16.1067L19.4236 18.84C19.5599 19.0033 19.5284 19.248 19.3554 19.3716L17.7575 20.5129C17.5862 20.6352 17.3473 20.588 17.2354 20.4098L15.3295 17.3733L14.0927 20.6667C14.0183 20.8648 13.7916 20.9585 13.599 20.8708L11.804 20.0533Z" fill="#ECFFCE"/>
</svg>
