<svg width="65" height="65" viewBox="0 0 65 65" fill="none" xmlns="http://www.w3.org/2000/svg">
<path d="M62.8058 42.2029C57.624 59.0943 39.7302 68.5867 22.8388 63.4049C5.94748 58.2231 -3.54496 40.3292 1.63686 23.4379C6.81868 6.54654 24.7125 -2.94591 41.6039 2.23591C58.4952 7.41772 67.9877 25.3116 62.8058 42.2029Z" fill="#F588B9"/>
<path d="M22.272 29.7687L27.9716 28.6863C27.9892 28.6829 28.0035 28.67 28.0088 28.6529L28.7783 26.1456C28.789 26.1106 28.7585 26.0773 28.7229 26.0851L19.2977 28.1491C19.2807 28.1528 19.267 28.1655 19.2618 28.1822L18.7445 29.868C18.739 29.8858 18.7443 29.9051 18.758 29.9175L25.6457 36.1215C25.6716 36.1449 25.7131 36.1331 25.7234 36.0995L26.4941 33.5883C26.4997 33.5702 26.4942 33.5506 26.48 33.5383L22.2489 29.852C22.2189 29.8258 22.2326 29.7761 22.272 29.7687Z" fill="#FFEDF5"/>
<path d="M22.272 29.7687L27.9716 28.6863C27.9892 28.6829 28.0035 28.67 28.0088 28.6529L28.7783 26.1456C28.789 26.1106 28.7585 26.0773 28.7229 26.0851L19.2977 28.1491C19.2807 28.1528 19.267 28.1655 19.2618 28.1822L18.7445 29.868C18.739 29.8858 18.7443 29.9051 18.758 29.9175L25.6457 36.1215C25.6716 36.1449 25.7131 36.1331 25.7234 36.0995L26.4941 33.5883C26.4997 33.5702 26.4942 33.5506 26.48 33.5383L22.2489 29.852C22.2189 29.8258 22.2326 29.7761 22.272 29.7687Z" fill="#FFEDF5"/>
<path d="M22.272 29.7687L27.9716 28.6863C27.9892 28.6829 28.0035 28.67 28.0088 28.6529L28.7783 26.1456C28.789 26.1106 28.7585 26.0773 28.7229 26.0851L19.2977 28.1491C19.2807 28.1528 19.267 28.1655 19.2618 28.1822L18.7445 29.868C18.739 29.8858 18.7443 29.9051 18.758 29.9175L25.6457 36.1215C25.6716 36.1449 25.7131 36.1331 25.7234 36.0995L26.4941 33.5883C26.4997 33.5702 26.4942 33.5506 26.48 33.5383L22.2489 29.852C22.2189 29.8258 22.2326 29.7761 22.272 29.7687Z" fill="#FFEDF5"/>
<path d="M42.0259 35.6932L37.8954 31.6626C37.8827 31.6502 37.878 31.6316 37.8832 31.6144L38.6527 29.1071C38.6635 29.0722 38.7076 29.0612 38.7328 29.0873L45.409 35.9803C45.4211 35.9928 45.4254 36.0109 45.4203 36.0276L44.9029 37.7134C44.8974 37.7312 44.8822 37.7443 44.8638 37.747L35.6501 39.1221C35.6155 39.1272 35.5876 39.0946 35.5979 39.061L36.3686 36.5498C36.3741 36.5317 36.3897 36.5185 36.4084 36.516L41.9982 35.7752C42.0379 35.7699 42.0544 35.721 42.0259 35.6932Z" fill="#FFEDF5"/>
<path d="M42.0259 35.6932L37.8954 31.6626C37.8827 31.6502 37.878 31.6316 37.8832 31.6144L38.6527 29.1071C38.6635 29.0722 38.7076 29.0612 38.7328 29.0873L45.409 35.9803C45.4211 35.9928 45.4254 36.0109 45.4203 36.0276L44.9029 37.7134C44.8974 37.7312 44.8822 37.7443 44.8638 37.747L35.6501 39.1221C35.6155 39.1272 35.5876 39.0946 35.5979 39.061L36.3686 36.5498C36.3741 36.5317 36.3897 36.5185 36.4084 36.516L41.9982 35.7752C42.0379 35.7699 42.0544 35.721 42.0259 35.6932Z" fill="#FFEDF5"/>
<path d="M42.0259 35.6932L37.8954 31.6626C37.8827 31.6502 37.878 31.6316 37.8832 31.6144L38.6527 29.1071C38.6635 29.0722 38.7076 29.0612 38.7328 29.0873L45.409 35.9803C45.4211 35.9928 45.4254 36.0109 45.4203 36.0276L44.9029 37.7134C44.8974 37.7312 44.8822 37.7443 44.8638 37.747L35.6501 39.1221C35.6155 39.1272 35.5876 39.0946 35.5979 39.061L36.3686 36.5498C36.3741 36.5317 36.3897 36.5185 36.4084 36.516L41.9982 35.7752C42.0379 35.7699 42.0544 35.721 42.0259 35.6932Z" fill="#FFEDF5"/>
<path d="M37.373 27.4969L34.8717 26.7467C34.8525 26.7409 34.8317 26.7478 34.8195 26.764L26.2474 38.1705C26.2273 38.1972 26.2397 38.2355 26.2714 38.245L28.7727 38.9952C28.7919 39.0009 28.8127 38.994 28.8248 38.9779L37.397 27.5714C37.417 27.5447 37.4047 27.5064 37.373 27.4969Z" fill="#FFEDF5"/>
</svg>
