<svg width="103" height="81" viewBox="0 0 103 81" fill="none" xmlns="http://www.w3.org/2000/svg">
<path d="M68.0178 13.9229C81.8332 30.3285 79.8661 54.9851 63.6241 68.995C47.3822 83.0049 23.0159 81.0628 9.2006 64.6572C-4.61475 48.2516 -2.64762 23.5949 13.5943 9.58506C29.8362 -4.42483 54.2025 -2.48272 68.0178 13.9229Z" fill="#9FA8FE"/>
<path d="M29.363 47.1011L31.8378 41.1695C31.8711 41.0898 31.857 40.999 31.8013 40.9343L30.0572 38.907C29.9437 38.775 29.7269 38.8146 29.6637 38.9788L25.6908 49.2997C25.6606 49.3781 25.6755 49.4659 25.7298 49.529L26.9388 50.9343C26.9966 51.0016 27.0891 51.0289 27.1759 51.0045L37.5245 48.0946C37.6883 48.0486 37.7511 47.8502 37.642 47.7234L35.8852 45.6814C35.8265 45.6131 35.7323 45.5861 35.6445 45.6123L29.6403 47.4054C29.4538 47.4611 29.2885 47.2796 29.363 47.1011Z" fill="#9FA8FE"/>
<path d="M29.363 47.1011L31.8378 41.1695C31.8711 41.0898 31.857 40.999 31.8013 40.9343L30.0572 38.907C29.9437 38.775 29.7269 38.8146 29.6637 38.9788L25.6908 49.2997C25.6606 49.3781 25.6755 49.4659 25.7298 49.529L26.9388 50.9343C26.9966 51.0016 27.0891 51.0289 27.1759 51.0045L37.5245 48.0946C37.6883 48.0486 37.7511 47.8502 37.642 47.7234L35.8852 45.6814C35.8265 45.6131 35.7323 45.5861 35.6445 45.6123L29.6403 47.4054C29.4538 47.4611 29.2885 47.2796 29.363 47.1011Z" fill="#9FA8FE"/>
<path d="M29.363 47.1011L31.8378 41.1695C31.8711 41.0898 31.857 40.999 31.8013 40.9343L30.0572 38.907C29.9437 38.775 29.7269 38.8146 29.6637 38.9788L25.6908 49.2997C25.6606 49.3781 25.6755 49.4659 25.7298 49.529L26.9388 50.9343C26.9966 51.0016 27.0891 51.0289 27.1759 51.0045L37.5245 48.0946C37.6883 48.0486 37.7511 47.8502 37.642 47.7234L35.8852 45.6814C35.8265 45.6131 35.7323 45.5861 35.6445 45.6123L29.6403 47.4054C29.4538 47.4611 29.2885 47.2796 29.363 47.1011Z" fill="#ECFFCE"/>
<path d="M47.7491 31.4876L41.4664 32.993C41.382 33.0132 41.294 32.9853 41.2383 32.9205L39.4941 30.8932C39.3806 30.7612 39.4537 30.5547 39.6268 30.5182L50.5068 28.2259C50.5894 28.2085 50.6744 28.2368 50.7286 28.2998L51.9377 29.7052C51.9955 29.7724 52.0083 29.8674 51.9705 29.9488L47.4663 39.6521C47.395 39.8057 47.188 39.8364 47.0789 39.7096L45.3222 37.6676C45.2635 37.5993 45.2512 37.5026 45.291 37.4206L48.0085 31.8071C48.0929 31.6328 47.9382 31.4423 47.7491 31.4876Z" fill="#9FA8FE"/>
<path d="M47.7491 31.4876L41.4664 32.993C41.382 33.0132 41.294 32.9853 41.2383 32.9205L39.4941 30.8932C39.3806 30.7612 39.4537 30.5547 39.6268 30.5182L50.5068 28.2259C50.5894 28.2085 50.6744 28.2368 50.7286 28.2998L51.9377 29.7052C51.9955 29.7724 52.0083 29.8674 51.9705 29.9488L47.4663 39.6521C47.395 39.8057 47.188 39.8364 47.0789 39.7096L45.3222 37.6676C45.2635 37.5993 45.2512 37.5026 45.291 37.4206L48.0085 31.8071C48.0929 31.6328 47.9382 31.4423 47.7491 31.4876Z" fill="#9FA8FE"/>
<path d="M47.7491 31.4876L41.4664 32.993C41.382 33.0132 41.294 32.9853 41.2383 32.9205L39.4941 30.8932C39.3806 30.7612 39.4537 30.5547 39.6268 30.5182L50.5068 28.2259C50.5894 28.2085 50.6744 28.2368 50.7286 28.2998L51.9377 29.7052C51.9955 29.7724 52.0083 29.8674 51.9705 29.9488L47.4663 39.6521C47.395 39.8057 47.188 39.8364 47.0789 39.7096L45.3222 37.6676C45.2635 37.5993 45.2512 37.5026 45.291 37.4206L48.0085 31.8071C48.0929 31.6328 47.9382 31.4423 47.7491 31.4876Z" fill="#ECFFCE"/>
<path d="M36.6619 31.1097L34.556 32.8981C34.4816 32.9613 34.4542 33.0633 34.4875 33.1533L40.1474 48.4638C40.2024 48.6126 40.3909 48.6595 40.514 48.5549L42.6199 46.7666C42.6944 46.7033 42.7218 46.6014 42.6885 46.5113L37.0286 31.2009C36.9735 31.0521 36.785 31.0052 36.6619 31.1097Z" fill="#ECFFCE"/>
<path d="M80.3987 34.1862L59.6656 40.7602C59.5409 40.7998 59.4588 40.9285 59.4632 41.0721C60.11 61.9614 64.2922 71.3374 83.895 80.2011C83.977 80.2382 84.0729 80.235 84.1489 80.1924C101.255 70.6167 104.114 60.9855 102.675 39.9205C102.665 39.7715 102.564 39.6401 102.429 39.6068L80.5478 34.1818C80.4979 34.1695 80.4466 34.171 80.3987 34.1862Z" fill="#F588B9"/>
<path d="M89.6346 43.1832L78.9089 44.4957L75.4844 58.7447L80.921 58.0795L78.7752 69.8012L89.2718 52.9086L82.4576 53.7424L89.6346 43.1832Z" fill="#ECFFCE"/>
</svg>
