<svg width="16" height="15" viewBox="0 0 16 15" fill="none" xmlns="http://www.w3.org/2000/svg">
<path d="M11.1738 13.8822C10.6563 14.0197 10.1668 14.1 9.67772 14.1262C8.84205 14.1739 8.03727 14.0723 7.28959 13.8287C6.02103 13.4143 4.95659 12.6321 4.12494 11.4994C3.60564 10.7923 3.21321 9.98722 2.95975 9.10778C2.70677 8.23029 2.62092 7.34159 2.7072 6.46942C2.79646 5.56117 3.06764 4.70006 3.51102 3.91154C3.98103 3.07649 4.61884 2.35255 5.40986 1.754C6.0971 1.23287 6.86422 0.819242 7.69135 0.522545C7.9063 0.444644 8.12371 0.376469 8.34169 0.318524C8.7587 0.207672 9.1846 0.131834 9.608 0.094032L9.6792 0.0875637C10.0072 0.056441 10.3456 0.0266891 10.7471 0.0777792C10.7471 0.0777792 10.7804 0.0813883 11.316 0.15909C11.3308 0.161398 11.3432 0.17055 11.3523 0.182654C11.7368 0.852849 12.0865 1.55308 12.392 2.26295C12.7622 3.12383 13.0785 4.01978 13.3303 4.92458C13.3367 4.94987 13.3251 4.9758 13.3009 4.98429C13.3009 4.98429 13.0762 5.07934 13.0724 5.08034C13.061 5.08337 13.0468 5.08301 13.0377 5.07919C12.5749 4.87413 12.0938 4.73211 11.6076 4.65788C11.3273 4.61402 10.8601 4.54303 10.2661 4.62618C10.1058 4.64805 9.94598 4.68014 9.78865 4.72196C9.71663 4.74111 9.64649 4.75975 9.57405 4.78524C9.12365 4.93196 8.73429 5.10398 8.38374 5.30929C7.83808 5.63083 7.46891 5.97812 7.22546 6.4062C6.95347 6.88132 6.88459 7.38342 7.01775 7.90033C7.10601 8.24023 7.24316 8.52561 7.43652 8.77736C7.71405 9.13754 8.07733 9.37319 8.51541 9.48098C8.97731 9.59491 9.45558 9.58197 9.97685 9.44341C10.0565 9.42224 10.1337 9.39964 10.2118 9.37264C10.7493 9.19446 11.2401 8.95186 11.6701 8.65277C11.8424 8.53431 12.0064 8.39934 12.1594 8.25277C12.5191 7.90799 12.7241 7.57529 12.9215 7.25288C13.1362 6.90303 13.327 6.53048 13.4858 6.14359C13.4909 6.13185 13.5008 6.12299 13.5117 6.11802L13.7317 6.0201C13.7525 6.01456 13.7754 6.02508 13.7865 6.04496C14.1453 6.70953 14.4759 7.39823 14.7718 8.09405C15.1343 8.94866 15.4524 9.83583 15.7155 10.7293C15.7185 10.741 15.719 10.7512 15.7139 10.763C15.7065 10.7815 15.6968 10.807 15.6842 10.8373C15.4291 11.4429 14.9726 11.7968 14.443 12.2054C14.3685 12.2626 14.2926 12.3222 14.2166 12.3819C13.515 12.9338 12.7205 13.3672 11.8582 13.6691C11.6276 13.7491 11.3989 13.8203 11.1771 13.8792L11.1738 13.8822Z" fill="#F3F3F1"/>
<path d="M8.35073 0.370106C8.76395 0.260262 9.18416 0.185936 9.60756 0.148134C9.95358 0.116367 10.3119 0.0771817 10.7367 0.132455C10.7367 0.132455 10.7699 0.136064 11.3051 0.21182C11.6529 0.817027 12.0067 1.50991 12.3414 2.28678C12.7543 3.24428 13.0545 4.14037 13.2777 4.94063C13.203 4.97296 13.1277 5.00335 13.053 5.03568C12.4805 4.78089 11.9758 4.66588 11.61 4.61156C11.2965 4.56409 10.8402 4.49642 10.2543 4.5795C10.092 4.60187 9.93224 4.63396 9.77112 4.67679C9.69909 4.69594 9.62517 4.71559 9.55462 4.74057C9.13595 4.87678 8.73374 5.04599 8.35343 5.26959C7.88006 5.54907 7.45766 5.89391 7.17726 6.38372C6.90387 6.86128 6.8237 7.37469 6.96517 7.91639C7.05047 8.24462 7.18777 8.54656 7.39266 8.81186C7.67933 9.18415 8.04978 9.42412 8.49833 9.53328C9.00118 9.65708 9.49684 9.62499 9.98399 9.49549C10.0636 9.47433 10.1427 9.45122 10.2227 9.42372C10.7456 9.25151 11.2379 9.01475 11.6938 8.69838C11.8708 8.57451 12.0348 8.43954 12.1878 8.29298C12.5456 7.9487 12.7455 7.62774 12.9574 7.28279C13.1268 7.00936 13.3313 6.63523 13.5259 6.16615C13.5969 6.13483 13.6679 6.10351 13.7388 6.07218C14.07 6.68387 14.4029 7.36572 14.7231 8.11738C15.1205 9.05405 15.4263 9.94035 15.6653 10.7468C15.6593 10.7629 15.6496 10.7884 15.6351 10.8192C15.3499 11.4972 14.8045 11.8519 14.1825 12.3432C13.471 12.904 12.6878 13.3261 11.8383 13.6225C11.6134 13.7009 11.3884 13.7711 11.1609 13.8316C10.6738 13.9611 10.1796 14.0468 9.67297 14.0756C8.86721 14.1216 8.07347 14.0315 7.30147 13.7799C6.011 13.3588 4.97219 12.574 4.16171 11.4688C3.63566 10.7511 3.25377 9.95568 3.00475 9.09374C2.7572 8.23764 2.66532 7.36508 2.75334 6.47584C2.84169 5.57198 3.10826 4.72457 3.55023 3.93849C4.02816 3.0868 4.66423 2.37994 5.43497 1.79716C6.1312 1.27157 6.88793 0.864848 7.70229 0.573623C7.91534 0.496226 8.13135 0.430501 8.34933 0.372555M8.32465 0.275297C8.10667 0.333242 7.88736 0.40192 7.67053 0.480325C6.8396 0.77803 6.06918 1.19461 5.37675 1.7192C4.58054 2.32121 3.93802 3.05054 3.46521 3.8905C3.01763 4.68637 2.74554 5.55186 2.65636 6.4684C2.56917 7.34496 2.65601 8.23755 2.91096 9.12283C3.1659 10.0081 3.56122 10.8166 4.08389 11.529C4.9218 12.6704 5.99389 13.4589 7.27341 13.8766C8.02778 14.1225 8.83873 14.2246 9.68058 14.1773C10.1734 14.1502 10.6667 14.0689 11.188 13.9303C11.4098 13.8713 11.6405 13.7996 11.873 13.7191C12.7409 13.4158 13.5392 12.9814 14.2455 12.424C14.3234 12.3639 14.3974 12.3048 14.4719 12.2476C15.0062 11.8335 15.4684 11.4781 15.7281 10.8588C15.7407 10.8285 15.7518 10.8006 15.7578 10.7845C15.7667 10.7635 15.7669 10.7406 15.7615 10.7192C15.4979 9.82373 15.1798 8.93657 14.8163 8.07807C14.5199 7.3803 14.1889 6.68966 13.8282 6.02559C13.8059 5.98582 13.7601 5.96478 13.7184 5.97586C13.7127 5.97737 13.7089 5.97838 13.7033 5.97989L13.4904 6.07386C13.4667 6.0843 13.4493 6.10346 13.4391 6.12694C13.2817 6.51138 13.0923 6.88148 12.879 7.22888C12.6745 7.56353 12.4794 7.8791 12.1244 8.21847C11.9747 8.36209 11.8126 8.49655 11.6422 8.61451C11.216 8.91259 10.7285 9.15224 10.1962 9.32696C10.1175 9.35202 10.0389 9.37707 9.9631 9.39722C9.44942 9.53377 8.97923 9.54664 8.52351 9.43315C8.09639 9.32867 7.74216 9.09685 7.47139 8.74733C7.2819 8.50285 7.14763 8.22086 7.06135 7.88874C6.92974 7.38595 6.99779 6.89653 7.26228 6.43171C7.50202 6.01293 7.8641 5.66959 8.40316 5.35396C8.75182 5.14915 9.13788 4.98009 9.58449 4.83437C9.65553 4.81134 9.72517 4.79075 9.7953 4.7721C9.95074 4.73079 10.1105 4.69869 10.2666 4.67589C10.8506 4.59331 11.3159 4.6648 11.5938 4.70722C12.0781 4.78196 12.5545 4.9211 13.0111 5.12572C13.0316 5.1348 13.0544 5.13704 13.0753 5.13149C13.079 5.13049 13.0847 5.12897 13.0885 5.12797L13.3133 5.03292C13.3592 5.01449 13.3844 4.96212 13.3696 4.91205C13.1173 4.00531 12.8005 3.10741 12.4299 2.24459C12.1238 1.53277 11.7718 0.831101 11.3868 0.158961C11.3718 0.131799 11.345 0.113999 11.3155 0.109383C10.7847 0.0345637 10.7466 0.0280719 10.7466 0.0280719C10.3409 -0.0239556 9.99863 0.00680391 9.66826 0.0364854L9.59517 0.0434576C9.16987 0.0817635 8.74208 0.158106 8.32128 0.269965L8.32465 0.275297Z" fill="#F3F3F1"/>
<path d="M3.80423 1.63657L0.499442 1.63196C0.479575 1.63193 0.461865 1.64569 0.456058 1.66514C-0.388879 4.49488 -0.203226 5.93139 2.2437 7.9585C2.25394 7.96698 2.26799 7.97064 2.28094 7.96818C5.19421 7.41508 6.04206 6.2454 6.77992 3.35823C6.78514 3.33781 6.77629 3.31585 6.75825 3.30561L3.82607 1.64237C3.81939 1.63858 3.81187 1.63658 3.80423 1.63657Z" fill="#F588B9"/>
<path d="M4.74044 3.23832L3.12466 2.9558L1.98723 4.72074L2.80624 4.86395L1.96798 6.34455L4.25072 4.52737L3.22418 4.34788L4.74044 3.23832Z" fill="#F3F3F1"/>
</svg>
