<svg width="311" height="311" viewBox="0 0 311 311" fill="none" xmlns="http://www.w3.org/2000/svg">
<g clip-path="url(#clip0_6_259)">
<path d="M310.666 155.639C310.666 241.243 241.27 310.639 155.666 310.639C70.0614 310.639 0.665527 241.243 0.665527 155.639C0.665527 70.0351 70.0614 0.639282 155.666 0.639282C241.27 0.639282 310.666 70.0351 310.666 155.639Z" fill="#CAC48E"/>
<path d="M138.074 115.32L200.353 145.41C214.922 152.45 221.055 170.011 214.027 184.638C207.002 199.258 189.5 205.387 174.938 198.351L112.659 168.26C98.0899 161.221 91.9575 143.659 98.9855 129.032C106.01 114.412 123.512 108.284 138.074 115.32Z" stroke="#FFFAC2" stroke-width="9.13333"/>
<rect x="177.168" y="144.956" width="40" height="40" rx="20" transform="rotate(25 177.168 144.956)" fill="#FFFAC2"/>
</g>
<defs>
<clipPath id="clip0_6_259">
<rect width="310" height="310" fill="white" transform="translate(0.665527 0.639282)"/>
</clipPath>
</defs>
</svg>
