<svg width="310" height="310" viewBox="0 0 310 310" fill="none" xmlns="http://www.w3.org/2000/svg">
<path d="M310 155C310 240.604 240.604 310 155 310C69.3959 310 0 240.604 0 155C0 69.3959 69.3959 0 155 0C240.604 0 310 69.3959 310 155Z" fill="#F28164"/>
<path d="M112.475 168.858C112.371 168.457 112.613 168.048 113.014 167.945L128.703 163.905C129.105 163.802 129.514 164.043 129.617 164.445L133.618 179.985C133.722 180.386 133.48 180.795 133.079 180.899L117.39 184.938C116.989 185.042 116.579 184.8 116.476 184.399L112.475 168.858Z" fill="#FFBCAB"/>
<path d="M181.521 151.08C181.417 150.678 181.659 150.269 182.06 150.166L197.749 146.126C198.151 146.023 198.56 146.265 198.663 146.666L202.664 162.206C202.768 162.607 202.526 163.016 202.125 163.12L186.436 167.159C186.034 167.263 185.625 167.021 185.522 166.62L181.521 151.08Z" fill="#FFBCAB"/>
<path d="M133.995 181.437C133.891 181.035 134.133 180.626 134.534 180.523L184.984 167.533C185.385 167.43 185.794 167.671 185.898 168.073L189.899 183.613C190.002 184.014 189.761 184.423 189.36 184.526L138.91 197.516C138.509 197.62 138.099 197.378 137.996 196.977L133.995 181.437Z" fill="#FFBCAB"/>
<path d="M120.666 129.673C120.563 129.272 120.804 128.862 121.206 128.759L136.895 124.719C137.296 124.616 137.705 124.858 137.808 125.259L141.81 140.799C141.913 141.2 141.671 141.61 141.27 141.713L125.581 145.753C125.18 145.856 124.771 145.614 124.667 145.213L120.666 129.673Z" fill="#FFBCAB"/>
<path d="M155.428 120.723C155.324 120.322 155.566 119.913 155.967 119.809L171.656 115.77C172.058 115.666 172.467 115.908 172.57 116.309L176.571 131.849C176.675 132.251 176.433 132.66 176.032 132.763L160.343 136.803C159.942 136.906 159.532 136.665 159.429 136.263L155.428 120.723Z" fill="#FFBCAB"/>
</svg>
