<svg width="311" height="311" viewBox="0 0 311 311" fill="none" xmlns="http://www.w3.org/2000/svg">
<path d="M310.666 155.639C310.666 241.243 241.27 310.639 155.666 310.639C70.0614 310.639 0.665527 241.243 0.665527 155.639C0.665527 70.0351 70.0614 0.639221 155.666 0.639221C241.27 0.639221 310.666 70.0351 310.666 155.639Z" fill="#A2B87E"/>
<path d="M122.632 207.871C120.644 206.965 119.836 204.568 120.869 202.645L138.077 170.608L101.468 176.347C99.3191 176.684 97.3303 175.141 97.1222 172.976L95.1809 152.777C94.9705 150.588 96.6678 148.682 98.8671 148.638L135.74 147.911L112.086 119.616C110.675 117.928 110.998 115.397 112.788 114.118L129.301 102.324C131.071 101.06 133.54 101.547 134.697 103.39L154.397 134.775L167.271 100.765C168.044 98.7223 170.383 97.7588 172.37 98.664L190.923 107.114C192.914 108.021 193.721 110.424 192.681 112.349L175.391 144.337L212 138.598C214.149 138.261 216.138 139.804 216.346 141.969L218.288 162.172C218.498 164.36 216.803 166.265 214.606 166.311L177.824 167.078L201.389 195.33C202.797 197.018 202.472 199.547 200.683 200.824L184.167 212.621C182.397 213.885 179.928 213.398 178.771 211.555L159.071 180.17L146.288 214.211C145.518 216.259 143.176 217.227 141.185 216.321L122.632 207.871Z" fill="#ECFFCE"/>
</svg>
