<svg width="311" height="311" viewBox="0 0 311 311" fill="none" xmlns="http://www.w3.org/2000/svg">
<path d="M310.666 155.639C310.666 241.243 241.27 310.639 155.666 310.639C70.0614 310.639 0.665527 241.243 0.665527 155.639C0.665527 70.0351 70.0614 0.639282 155.666 0.639282C241.27 0.639282 310.666 70.0351 310.666 155.639Z" fill="#F588B9"/>
<path d="M108.285 172.887L127.163 152.061C127.222 151.997 127.24 151.905 127.21 151.823L122.865 139.882C122.805 139.716 122.589 139.676 122.474 139.81L92.0562 175.308C92.0013 175.372 91.9852 175.461 92.0142 175.541L94.9354 183.569C94.9662 183.654 95.0429 183.713 95.1321 183.721L139.877 187.601C140.046 187.616 140.172 187.449 140.114 187.289L135.762 175.329C135.731 175.243 135.652 175.183 135.562 175.177L108.439 173.276C108.247 173.263 108.155 173.03 108.285 172.887Z" fill="#FFEDF5"/>
<path d="M108.285 172.887L127.163 152.061C127.222 151.997 127.24 151.905 127.21 151.823L122.865 139.882C122.805 139.716 122.589 139.676 122.474 139.81L92.0562 175.308C92.0013 175.372 91.9852 175.461 92.0142 175.541L94.9354 183.569C94.9662 183.654 95.0429 183.713 95.1321 183.721L139.877 187.601C140.046 187.616 140.172 187.449 140.114 187.289L135.762 175.329C135.731 175.243 135.652 175.183 135.562 175.177L108.439 173.276C108.247 173.263 108.155 173.03 108.285 172.887Z" fill="#FFEDF5"/>
<path d="M108.285 172.887L127.163 152.061C127.222 151.997 127.24 151.905 127.21 151.823L122.865 139.882C122.805 139.716 122.589 139.676 122.474 139.81L92.0562 175.308C92.0013 175.372 91.9852 175.461 92.0142 175.541L94.9354 183.569C94.9662 183.654 95.0429 183.713 95.1321 183.721L139.877 187.601C140.046 187.616 140.172 187.449 140.114 187.289L135.762 175.329C135.731 175.243 135.652 175.183 135.562 175.177L108.439 173.276C108.247 173.263 108.155 173.03 108.285 172.887Z" fill="#FFEDF5"/>
<path d="M201.963 138.123L174.225 134.597C174.139 134.586 174.067 134.528 174.037 134.446L169.693 122.505C169.632 122.338 169.771 122.167 169.944 122.194L215.883 129.356C215.966 129.369 216.036 129.426 216.065 129.506L218.986 137.535C219.017 137.619 218.996 137.715 218.933 137.779L187.321 169.995C187.202 170.116 186.999 170.072 186.941 169.912L182.589 157.952C182.558 157.866 182.58 157.769 182.645 157.705L202.096 138.521C202.234 138.384 202.155 138.147 201.963 138.123Z" fill="#FFEDF5"/>
<path d="M201.963 138.123L174.225 134.597C174.139 134.586 174.067 134.528 174.037 134.446L169.693 122.505C169.632 122.338 169.771 122.167 169.944 122.194L215.883 129.356C215.966 129.369 216.036 129.426 216.065 129.506L218.986 137.535C219.017 137.619 218.996 137.715 218.933 137.779L187.321 169.995C187.202 170.116 186.999 170.072 186.941 169.912L182.589 157.952C182.558 157.866 182.58 157.769 182.645 157.705L202.096 138.521C202.234 138.384 202.155 138.147 201.963 138.123Z" fill="#FFEDF5"/>
<path d="M201.963 138.123L174.225 134.597C174.139 134.586 174.067 134.528 174.037 134.446L169.693 122.505C169.632 122.338 169.771 122.167 169.944 122.194L215.883 129.356C215.966 129.369 216.036 129.426 216.065 129.506L218.986 137.535C219.017 137.619 218.996 137.715 218.933 137.779L187.321 169.995C187.202 170.116 186.999 170.072 186.941 169.912L182.589 157.952C182.558 157.866 182.58 157.769 182.645 157.705L202.096 138.521C202.234 138.384 202.155 138.147 201.963 138.123Z" fill="#FFEDF5"/>
<path d="M160.043 120.014L148.181 124.416C148.09 124.45 148.03 124.538 148.03 124.636L148.186 193.767C148.186 193.929 148.346 194.041 148.496 193.986L160.358 189.584C160.449 189.55 160.509 189.462 160.509 189.364L160.353 120.233C160.353 120.071 160.193 119.959 160.043 120.014Z" fill="#FFEDF5"/>
</svg>
